<svg xmlns="http://www.w3.org/2000/svg" width="160" height="101" fill="none" viewBox="0 0 160 101"><path stroke="#68FC65" stroke-linecap="round" stroke-width="7" d="M156 65.1881V24.6002C156 17.7613 151.059 11.9232 144.314 10.7928L117.191 6.24695C110.254 5.08433 103.232 4.5 96.1985 4.5H79H64.1792C57.212 4.5 50.2566 5.07333 43.3834 6.21419L15.7075 10.808C8.95272 11.9292 4 17.7718 4 24.619V64.7425C4 68.7189 4.64097 72.6692 5.89824 76.4415L6.90168 79.4522C9.1832 86.2977 14.3701 91.787 21.0754 94.4524L22.7383 95.1134C27.4061 96.9689 32.6027 96.9913 37.2863 95.1761C44.9495 92.2061 50 84.8322 50 76.6135V74.4633C50 72.4103 51.6643 70.746 53.7173 70.746H105.834C107.859 70.746 109.5 72.3872 109.5 74.4117V75.8065C109.5 84.485 114.907 92.2445 123.049 95.2496C127.846 97.0204 133.129 96.955 137.881 95.066L139.164 94.5562C146.015 91.8329 151.261 86.1496 153.429 79.1031L154.366 76.0583C155.449 72.5366 156 68.8727 156 65.1881Z"/><path stroke="#68FC65" stroke-linecap="round" stroke-width="9" d="M38 29V53"/><path stroke="#68FC65" stroke-linecap="round" stroke-width="9" d="M26 41H50"/><circle cx="122.5" cy="30.5" r="5.5" fill="#68FC65"/><circle cx="112.5" cy="40.5" r="5.5" fill="#68FC65"/><circle cx="133.5" cy="40.5" r="5.5" fill="#68FC65"/><circle cx="122.5" cy="50.5" r="5.5" fill="#68FC65"/></svg>