<svg xmlns="http://www.w3.org/2000/svg" width="240" height="165" fill="none" viewBox="0 0 240 165"><g clip-path="url(#clip0_1322_170)"><mask id="path-1-outside-1_1322_170" width="223" height="95" x="3" y="12" fill="black" maskUnits="userSpaceOnUse"><rect width="223" height="95" x="3" y="12" fill="white"/><path d="M29.0374 102C28.0928 102 27.2571 101.746 26.5304 101.237C25.8038 100.728 25.2951 100.074 25.0044 99.275L8.00043 48.263C7.56443 46.4463 7.60076 45.0293 8.10943 44.012C8.61809 42.922 9.63543 42.377 11.1614 42.377C12.1061 42.377 12.9418 42.6313 13.6684 43.14C14.3951 43.6487 14.9401 44.448 15.3034 45.538L30.4544 91.863H28.0564L42.1174 45.647C42.4081 44.7023 42.8804 43.9393 43.5344 43.358C44.2611 42.704 45.1694 42.377 46.2594 42.377C47.3494 42.377 48.2214 42.6677 48.8754 43.249C49.6021 43.8303 50.1108 44.6297 50.4014 45.647L63.8084 90.773H61.9554L76.7794 45.538C77.5061 43.4307 78.8504 42.377 80.8124 42.377C82.4111 42.377 83.5011 42.9947 84.0824 44.23C84.6638 45.3927 84.6638 46.737 84.0824 48.263L67.0784 99.275C66.7878 100.074 66.2791 100.728 65.5524 101.237C64.8984 101.746 64.0991 102 63.1544 102C62.2098 102 61.3378 101.746 60.5384 101.237C59.8118 100.728 59.3394 100.074 59.1214 99.275L45.3874 53.713H46.6954L32.9614 99.275C32.6708 100.147 32.1621 100.837 31.4354 101.346C30.7088 101.782 29.9094 102 29.0374 102ZM121.11 102.545C115.224 102.545 109.992 101.273 105.414 98.73C100.909 96.114 97.3481 92.517 94.7321 87.939C92.1887 83.361 90.9171 78.129 90.9171 72.243C90.9171 66.2843 92.1161 61.0523 94.5141 56.547C96.9847 51.969 100.364 48.372 104.651 45.756C108.938 43.14 113.88 41.832 119.475 41.832C124.998 41.832 129.794 43.1037 133.863 45.647C138.005 48.1177 141.202 51.5693 143.455 56.002C145.708 60.4347 146.834 65.485 146.834 71.153C146.834 72.3157 146.471 73.2603 145.744 73.987C145.017 74.641 144.073 74.968 142.91 74.968H96.5851V67.992H143.782L139.095 71.371C139.168 67.1563 138.405 63.3777 136.806 60.035C135.207 56.6923 132.918 54.0763 129.939 52.187C127.032 50.2977 123.544 49.353 119.475 49.353C115.333 49.353 111.7 50.334 108.575 52.296C105.45 54.258 103.016 56.983 101.272 60.471C99.6007 63.8863 98.7651 67.8103 98.7651 72.243C98.7651 76.6757 99.7097 80.5997 101.599 84.015C103.561 87.4303 106.213 90.119 109.556 92.081C112.899 94.043 116.75 95.024 121.11 95.024C123.726 95.024 126.342 94.588 128.958 93.716C131.647 92.7713 133.79 91.6087 135.389 90.228C136.188 89.574 137.097 89.247 138.114 89.247C139.131 89.1743 140.003 89.4287 140.73 90.01C141.675 90.882 142.147 91.8267 142.147 92.844C142.22 93.8613 141.82 94.7333 140.948 95.46C138.55 97.4947 135.498 99.2023 131.792 100.583C128.086 101.891 124.525 102.545 121.11 102.545ZM191.225 102.545C185.557 102.545 180.434 101.237 175.856 98.621C171.351 96.005 167.754 92.4443 165.065 87.939C162.449 83.361 161.105 78.238 161.032 72.57V21.122C161.032 19.814 161.396 18.7967 162.122 18.07C162.922 17.2707 163.975 16.871 165.283 16.871C166.519 16.871 167.5 17.2707 168.226 18.07C169.026 18.7967 169.425 19.814 169.425 21.122V53.168C171.823 49.7527 174.984 47.0277 178.908 44.993C182.905 42.8857 187.338 41.832 192.206 41.832C197.802 41.832 202.816 43.1763 207.248 45.865C211.681 48.481 215.169 52.078 217.712 56.656C220.328 61.234 221.636 66.3933 221.636 72.134C221.636 77.9473 220.292 83.143 217.603 87.721C214.987 92.299 211.39 95.9323 206.812 98.621C202.234 101.237 197.039 102.545 191.225 102.545ZM191.225 94.915C195.44 94.915 199.219 93.934 202.561 91.972C205.904 89.9373 208.52 87.2123 210.409 83.797C212.371 80.3817 213.352 76.494 213.352 72.134C213.352 67.8467 212.371 63.9953 210.409 60.58C208.52 57.092 205.904 54.367 202.561 52.405C199.219 50.443 195.44 49.462 191.225 49.462C187.083 49.462 183.341 50.443 179.998 52.405C176.656 54.367 174.04 57.092 172.15 60.58C170.261 63.9953 169.316 67.8467 169.316 72.134C169.316 76.494 170.261 80.3817 172.15 83.797C174.04 87.2123 176.656 89.9373 179.998 91.972C183.341 93.934 187.083 94.915 191.225 94.915Z"/></mask><path fill="url(#paint0_linear_1322_170)" d="M29.0374 102C28.0928 102 27.2571 101.746 26.5304 101.237C25.8038 100.728 25.2951 100.074 25.0044 99.275L8.00043 48.263C7.56443 46.4463 7.60076 45.0293 8.10943 44.012C8.61809 42.922 9.63543 42.377 11.1614 42.377C12.1061 42.377 12.9418 42.6313 13.6684 43.14C14.3951 43.6487 14.9401 44.448 15.3034 45.538L30.4544 91.863H28.0564L42.1174 45.647C42.4081 44.7023 42.8804 43.9393 43.5344 43.358C44.2611 42.704 45.1694 42.377 46.2594 42.377C47.3494 42.377 48.2214 42.6677 48.8754 43.249C49.6021 43.8303 50.1108 44.6297 50.4014 45.647L63.8084 90.773H61.9554L76.7794 45.538C77.5061 43.4307 78.8504 42.377 80.8124 42.377C82.4111 42.377 83.5011 42.9947 84.0824 44.23C84.6638 45.3927 84.6638 46.737 84.0824 48.263L67.0784 99.275C66.7878 100.074 66.2791 100.728 65.5524 101.237C64.8984 101.746 64.0991 102 63.1544 102C62.2098 102 61.3378 101.746 60.5384 101.237C59.8118 100.728 59.3394 100.074 59.1214 99.275L45.3874 53.713H46.6954L32.9614 99.275C32.6708 100.147 32.1621 100.837 31.4354 101.346C30.7088 101.782 29.9094 102 29.0374 102ZM121.11 102.545C115.224 102.545 109.992 101.273 105.414 98.73C100.909 96.114 97.3481 92.517 94.7321 87.939C92.1887 83.361 90.9171 78.129 90.9171 72.243C90.9171 66.2843 92.1161 61.0523 94.5141 56.547C96.9847 51.969 100.364 48.372 104.651 45.756C108.938 43.14 113.88 41.832 119.475 41.832C124.998 41.832 129.794 43.1037 133.863 45.647C138.005 48.1177 141.202 51.5693 143.455 56.002C145.708 60.4347 146.834 65.485 146.834 71.153C146.834 72.3157 146.471 73.2603 145.744 73.987C145.017 74.641 144.073 74.968 142.91 74.968H96.5851V67.992H143.782L139.095 71.371C139.168 67.1563 138.405 63.3777 136.806 60.035C135.207 56.6923 132.918 54.0763 129.939 52.187C127.032 50.2977 123.544 49.353 119.475 49.353C115.333 49.353 111.7 50.334 108.575 52.296C105.45 54.258 103.016 56.983 101.272 60.471C99.6007 63.8863 98.7651 67.8103 98.7651 72.243C98.7651 76.6757 99.7097 80.5997 101.599 84.015C103.561 87.4303 106.213 90.119 109.556 92.081C112.899 94.043 116.75 95.024 121.11 95.024C123.726 95.024 126.342 94.588 128.958 93.716C131.647 92.7713 133.79 91.6087 135.389 90.228C136.188 89.574 137.097 89.247 138.114 89.247C139.131 89.1743 140.003 89.4287 140.73 90.01C141.675 90.882 142.147 91.8267 142.147 92.844C142.22 93.8613 141.82 94.7333 140.948 95.46C138.55 97.4947 135.498 99.2023 131.792 100.583C128.086 101.891 124.525 102.545 121.11 102.545ZM191.225 102.545C185.557 102.545 180.434 101.237 175.856 98.621C171.351 96.005 167.754 92.4443 165.065 87.939C162.449 83.361 161.105 78.238 161.032 72.57V21.122C161.032 19.814 161.396 18.7967 162.122 18.07C162.922 17.2707 163.975 16.871 165.283 16.871C166.519 16.871 167.5 17.2707 168.226 18.07C169.026 18.7967 169.425 19.814 169.425 21.122V53.168C171.823 49.7527 174.984 47.0277 178.908 44.993C182.905 42.8857 187.338 41.832 192.206 41.832C197.802 41.832 202.816 43.1763 207.248 45.865C211.681 48.481 215.169 52.078 217.712 56.656C220.328 61.234 221.636 66.3933 221.636 72.134C221.636 77.9473 220.292 83.143 217.603 87.721C214.987 92.299 211.39 95.9323 206.812 98.621C202.234 101.237 197.039 102.545 191.225 102.545ZM191.225 94.915C195.44 94.915 199.219 93.934 202.561 91.972C205.904 89.9373 208.52 87.2123 210.409 83.797C212.371 80.3817 213.352 76.494 213.352 72.134C213.352 67.8467 212.371 63.9953 210.409 60.58C208.52 57.092 205.904 54.367 202.561 52.405C199.219 50.443 195.44 49.462 191.225 49.462C187.083 49.462 183.341 50.443 179.998 52.405C176.656 54.367 174.04 57.092 172.15 60.58C170.261 63.9953 169.316 67.8467 169.316 72.134C169.316 76.494 170.261 80.3817 172.15 83.797C174.04 87.2123 176.656 89.9373 179.998 91.972C183.341 93.934 187.083 94.915 191.225 94.915Z"/><path fill="url(#paint1_linear_1322_170)" d="M26.5304 101.237L28.8243 97.9601L28.8243 97.9601L26.5304 101.237ZM25.0044 99.275L21.2097 100.54C21.2211 100.574 21.2329 100.608 21.2453 100.642L25.0044 99.275ZM8.00043 48.263L4.11088 49.1965C4.13771 49.3083 4.16934 49.4188 4.20569 49.5279L8.00043 48.263ZM8.10943 44.012L11.6871 45.8009C11.7032 45.7686 11.7189 45.7362 11.7342 45.7035L8.10943 44.012ZM13.6684 43.14L11.3746 46.4169L11.3746 46.4169L13.6684 43.14ZM15.3034 45.538L19.1053 44.2946C19.1029 44.2874 19.1005 44.2802 19.0982 44.2731L15.3034 45.538ZM30.4544 91.863V95.863C31.7362 95.863 32.9404 95.2487 33.6928 94.211C34.4452 93.1733 34.6547 91.8379 34.2563 90.6196L30.4544 91.863ZM28.0564 91.863L24.2296 90.6987C23.8608 91.911 24.0882 93.2264 24.8426 94.2445C25.597 95.2626 26.7893 95.863 28.0564 95.863V91.863ZM42.1174 45.647L38.2943 44.4706L38.2906 44.4827L42.1174 45.647ZM43.5344 43.358L46.1919 46.3476C46.198 46.3422 46.2042 46.3367 46.2103 46.3312L43.5344 43.358ZM48.8754 43.249L46.218 46.2386C46.2697 46.2846 46.3226 46.3292 46.3766 46.3725L48.8754 43.249ZM50.4014 45.647L46.5553 46.7459C46.5592 46.7593 46.5631 46.7728 46.5671 46.7862L50.4014 45.647ZM63.8084 90.773V94.773C65.071 94.773 66.2594 94.1769 67.0144 93.165C67.7694 92.1531 68.0024 90.8441 67.6428 89.6338L63.8084 90.773ZM61.9554 90.773L58.1543 89.5273C57.755 90.7458 57.964 92.0818 58.7164 93.1201C59.4687 94.1583 60.6732 94.773 61.9554 94.773V90.773ZM76.7794 45.538L72.9979 44.234C72.9913 44.2534 72.9847 44.2729 72.9783 44.2923L76.7794 45.538ZM84.0824 44.23L80.4632 45.9332C80.4767 45.9619 80.4905 45.9905 80.5047 46.0189L84.0824 44.23ZM84.0824 48.263L80.3445 46.839C80.3244 46.8916 80.3055 46.9447 80.2877 46.9981L84.0824 48.263ZM67.0784 99.275L70.8376 100.642C70.8499 100.608 70.8618 100.574 70.8732 100.54L67.0784 99.275ZM65.5524 101.237L63.2586 97.9601C63.2036 97.9985 63.1496 98.0384 63.0967 98.0796L65.5524 101.237ZM60.5384 101.237L58.2446 104.514C58.2926 104.548 58.3414 104.58 58.3909 104.612L60.5384 101.237ZM59.1214 99.275L62.9805 98.2225C62.9712 98.1884 62.9614 98.1544 62.9512 98.1206L59.1214 99.275ZM45.3874 53.713V49.713C44.1221 49.713 42.9313 50.3117 42.1767 51.3274C41.422 52.3431 41.1924 53.6559 41.5576 54.8674L45.3874 53.713ZM46.6954 53.713L50.5252 54.8674C50.8904 53.6559 50.6608 52.3431 49.9062 51.3274C49.1515 50.3117 47.9608 49.713 46.6954 49.713V53.713ZM32.9614 99.275L36.7562 100.54C36.7684 100.503 36.7801 100.466 36.7912 100.429L32.9614 99.275ZM31.4354 101.346L33.4934 104.776C33.5738 104.728 33.6525 104.677 33.7293 104.623L31.4354 101.346ZM29.0374 98C28.9277 98 28.8777 97.9859 28.8668 97.9826C28.8583 97.9799 28.8479 97.9766 28.8243 97.9601L24.2366 104.514C25.6803 105.525 27.3284 106 29.0374 106V98ZM28.8243 97.9601C28.7932 97.9383 28.7757 97.9229 28.7678 97.9154C28.76 97.9082 28.7589 97.9061 28.7613 97.9092C28.7639 97.9125 28.7665 97.9165 28.7682 97.9196C28.7698 97.9225 28.7678 97.9196 28.7636 97.908L21.2453 100.642C21.8292 102.248 22.8676 103.556 24.2366 104.514L28.8243 97.9601ZM28.7992 98.0101L11.7952 46.9981L4.20569 49.5279L21.2097 100.54L28.7992 98.0101ZM11.89 47.3295C11.7292 46.6596 11.6924 46.2099 11.6994 45.9403C11.7061 45.6774 11.7514 45.6724 11.6871 45.8009L4.53172 42.2231C3.40486 44.4768 3.58624 47.0105 4.11088 49.1965L11.89 47.3295ZM11.7342 45.7035C11.6972 45.7828 11.6272 45.9009 11.5105 46.026C11.3926 46.1523 11.2624 46.2476 11.1428 46.3117C10.9135 46.4345 10.8528 46.377 11.1614 46.377V38.377C9.94401 38.377 8.61166 38.592 7.36504 39.2598C6.06112 39.9584 5.08784 41.028 4.48469 42.3205L11.7342 45.7035ZM11.1614 46.377C11.2711 46.377 11.3212 46.3911 11.332 46.3944C11.3406 46.397 11.3509 46.4004 11.3746 46.4169L15.9623 39.8631C14.5185 38.8525 12.8704 38.377 11.1614 38.377V46.377ZM11.3746 46.4169C11.3073 46.3699 11.2924 46.3379 11.3173 46.3743C11.347 46.4179 11.4227 46.5448 11.5087 46.8029L19.0982 44.2731C18.5437 42.6097 17.5751 40.992 15.9623 39.8631L11.3746 46.4169ZM11.5016 46.7814L26.6526 93.1064L34.2563 90.6196L19.1053 44.2946L11.5016 46.7814ZM30.4544 87.863H28.0564V95.863H30.4544V87.863ZM31.8832 93.0273L45.9442 46.8113L38.2906 44.4827L24.2296 90.6987L31.8832 93.0273ZM45.9405 46.8233C46.0445 46.4856 46.1534 46.3819 46.1919 46.3476L40.877 40.3684C39.6075 41.4968 38.7717 42.9191 38.2943 44.4707L45.9405 46.8233ZM46.2103 46.3312C46.206 46.335 46.1928 46.346 46.1715 46.3588C46.1501 46.3716 46.13 46.3806 46.1156 46.3858C46.1016 46.3908 46.1019 46.3891 46.1219 46.3858C46.1427 46.3824 46.187 46.377 46.2594 46.377V38.377C44.3036 38.377 42.4059 38.9923 40.8586 40.3848L46.2103 46.3312ZM46.2594 46.377C46.4522 46.377 46.5056 46.4029 46.466 46.3897C46.4456 46.3829 46.4077 46.368 46.3595 46.3405C46.3109 46.3127 46.2623 46.2781 46.218 46.2386L51.5329 40.2594C49.9791 38.8783 48.079 38.377 46.2594 38.377V46.377ZM46.3766 46.3725C46.39 46.3832 46.4049 46.3968 46.4273 46.432C46.4523 46.4712 46.5037 46.565 46.5553 46.7459L54.2475 44.5481C53.7612 42.846 52.8357 41.2947 51.3742 40.1255L46.3766 46.3725ZM46.5671 46.7862L59.9741 91.9122L67.6428 89.6338L54.2358 44.5078L46.5671 46.7862ZM63.8084 86.773H61.9554V94.773H63.8084V86.773ZM65.7565 92.0187L80.5805 46.7837L72.9783 44.2923L58.1543 89.5273L65.7565 92.0187ZM80.5609 46.842C80.7485 46.298 80.894 46.2419 80.8002 46.3155C80.7554 46.3506 80.7045 46.3751 80.6713 46.3857C80.6443 46.3943 80.681 46.377 80.8124 46.377V38.377C79.0762 38.377 77.3438 38.8601 75.8652 40.019C74.427 41.1462 73.537 42.6706 72.9979 44.234L80.5609 46.842ZM80.8124 46.377C81.1075 46.377 81.0573 46.4339 80.8569 46.3203C80.7574 46.2639 80.6607 46.1869 80.5808 46.0984C80.5031 46.0123 80.4694 45.9465 80.4632 45.9332L87.7017 42.5268C87.0921 41.2314 86.1306 40.1136 84.801 39.3602C83.5105 38.6289 82.116 38.377 80.8124 38.377V46.377ZM80.5047 46.0189C80.508 46.0255 80.5184 46.0371 80.5184 46.1102C80.5184 46.2037 80.498 46.436 80.3445 46.839L87.8204 49.687C88.6911 47.4013 88.8645 44.8499 87.6601 42.4411L80.5047 46.0189ZM80.2877 46.9981L63.2837 98.0101L70.8732 100.54L87.8772 49.5279L80.2877 46.9981ZM63.3193 97.908C63.315 97.9196 63.3131 97.9225 63.3147 97.9196C63.3164 97.9165 63.319 97.9125 63.3215 97.9092C63.324 97.9061 63.3228 97.9082 63.3151 97.9155C63.3071 97.9229 63.2896 97.9383 63.2586 97.9601L67.8463 104.514C69.2153 103.556 70.2537 102.248 70.8376 100.642L63.3193 97.908ZM63.0967 98.0796C63.1184 98.0627 63.1452 98.045 63.1753 98.0292C63.2054 98.0134 63.2314 98.0034 63.2496 97.9975C63.2881 97.9853 63.2664 98 63.1544 98V106C64.8578 106 66.5553 105.524 68.0082 104.394L63.0967 98.0796ZM63.1544 98C62.9729 98 62.8455 97.9639 62.6859 97.8624L58.3909 104.612C59.83 105.527 61.4466 106 63.1544 106V98ZM62.8323 97.9601C62.799 97.9368 62.8315 97.9533 62.8819 98.023C62.9345 98.0959 62.9666 98.1716 62.9805 98.2225L55.2624 100.327C55.7443 102.095 56.8106 103.51 58.2446 104.514L62.8323 97.9601ZM62.9512 98.1206L49.2172 52.5586L41.5576 54.8674L55.2916 100.429L62.9512 98.1206ZM45.3874 57.713H46.6954V49.713H45.3874V57.713ZM42.8656 52.5586L29.1316 98.1206L36.7912 100.429L50.5252 54.8674L42.8656 52.5586ZM29.1667 98.0101C29.1548 98.0458 29.1454 98.0655 29.1416 98.073C29.1379 98.0803 29.1376 98.0795 29.1417 98.074C29.1458 98.0683 29.1504 98.0632 29.1536 98.0601C29.1567 98.0571 29.154 98.0604 29.1416 98.0691L33.7293 104.623C35.186 103.603 36.2046 102.195 36.7562 100.54L29.1667 98.0101ZM29.3774 97.916C29.2911 97.9678 29.2065 98 29.0374 98V106C30.6123 106 32.1264 105.596 33.4934 104.776L29.3774 97.916ZM105.414 98.73L103.406 102.189C103.427 102.202 103.449 102.214 103.471 102.227L105.414 98.73ZM94.7321 87.939L91.2354 89.8816C91.2432 89.8956 91.2511 89.9096 91.2591 89.9236L94.7321 87.939ZM94.5141 56.547L90.994 54.6473C90.9903 54.654 90.9867 54.6608 90.9831 54.6676L94.5141 56.547ZM104.651 45.756L106.735 49.1706L104.651 45.756ZM133.863 45.647L131.743 49.039C131.767 49.0537 131.79 49.0681 131.814 49.0823L133.863 45.647ZM143.455 56.002L147.021 54.1898L147.021 54.1898L143.455 56.002ZM145.744 73.987L148.42 76.9602C148.472 76.9133 148.523 76.865 148.572 76.8154L145.744 73.987ZM96.5851 74.968H92.5851C92.5851 77.1771 94.3759 78.968 96.5851 78.968V74.968ZM96.5851 67.992V63.992C94.3759 63.992 92.5851 65.7829 92.5851 67.992H96.5851ZM143.782 67.992L146.121 71.2367C147.529 70.2217 148.122 68.4146 147.589 66.7629C147.055 65.1113 145.518 63.992 143.782 63.992V67.992ZM139.095 71.371L135.096 71.302C135.07 72.8157 135.9 74.2145 137.242 74.9158C138.584 75.6172 140.206 75.501 141.434 74.6157L139.095 71.371ZM136.806 60.035L140.415 58.3092L140.415 58.3092L136.806 60.035ZM129.939 52.187L127.759 55.5408C127.772 55.5489 127.784 55.557 127.797 55.565L129.939 52.187ZM108.575 52.296L106.448 48.9084L106.448 48.9084L108.575 52.296ZM101.272 60.471L97.6944 58.6821C97.6893 58.6923 97.6842 58.7026 97.6792 58.7128L101.272 60.471ZM101.599 84.015L98.0989 85.9512C98.1094 85.9701 98.1199 85.9888 98.1306 86.0075L101.599 84.015ZM109.556 92.081L107.531 95.5307L107.531 95.5307L109.556 92.081ZM128.958 93.716L130.223 97.5107C130.243 97.5039 130.264 97.497 130.284 97.4898L128.958 93.716ZM135.389 90.228L132.856 87.1322C132.829 87.1547 132.801 87.1775 132.775 87.2007L135.389 90.228ZM138.114 89.247V93.247C138.209 93.247 138.304 93.2436 138.399 93.2368L138.114 89.247ZM140.73 90.01L143.443 87.0708C143.374 87.0069 143.302 86.9454 143.229 86.8865L140.73 90.01ZM142.147 92.844H138.147C138.147 92.9391 138.15 93.0341 138.157 93.129L142.147 92.844ZM140.948 95.46L138.387 92.3871C138.378 92.3947 138.369 92.4023 138.36 92.41L140.948 95.46ZM131.792 100.583L133.123 104.355C133.145 104.347 133.167 104.339 133.189 104.331L131.792 100.583ZM121.11 98.545C115.818 98.545 111.27 97.4073 107.357 95.2334L103.471 102.227C108.714 105.139 114.63 106.545 121.11 106.545V98.545ZM107.423 95.2708C103.535 93.0132 100.476 89.9282 98.205 85.9544L91.2591 89.9236C94.2204 95.1058 98.283 99.2148 103.406 102.189L107.423 95.2708ZM98.2287 85.9964C96.0548 82.0833 94.9171 77.5349 94.9171 72.243H86.9171C86.9171 78.7231 88.3227 84.6387 91.2354 89.8816L98.2287 85.9964ZM94.9171 72.243C94.9171 66.8297 96.0029 62.2632 98.0451 58.4264L90.9831 54.6676C88.2293 59.8415 86.9171 65.739 86.9171 72.243H94.9171ZM98.0342 58.4467C100.181 54.4686 103.074 51.4041 106.735 49.1706L102.568 42.3414C97.6535 45.3399 93.7884 49.4694 90.994 54.6473L98.0342 58.4467ZM106.735 49.1706C110.325 46.98 114.529 45.832 119.475 45.832V37.832C113.231 37.832 107.552 39.3 102.568 42.3414L106.735 49.1706ZM119.475 45.832C124.364 45.832 128.401 46.95 131.743 49.039L135.983 42.255C131.187 39.2573 125.632 37.832 119.475 37.832V45.832ZM131.814 49.0823C135.286 51.1536 137.968 54.0329 139.889 57.8142L147.021 54.1898C144.437 49.1057 140.724 45.0818 135.912 42.2117L131.814 49.0823ZM139.889 57.8142C141.819 61.6113 142.834 66.0261 142.834 71.153H150.834C150.834 64.9439 149.597 59.258 147.021 54.1898L139.889 57.8142ZM142.834 71.153C142.834 71.2355 142.828 71.2841 142.824 71.3045C142.821 71.3241 142.82 71.3194 142.828 71.2976C142.837 71.2751 142.851 71.2461 142.87 71.2161C142.89 71.1862 142.907 71.1668 142.916 71.1586L148.572 76.8154C150.15 75.2376 150.834 73.2247 150.834 71.153H142.834ZM143.068 71.0138C143.085 70.9986 143.108 70.9816 143.133 70.9665C143.159 70.9516 143.177 70.9445 143.182 70.9428C143.193 70.939 143.117 70.968 142.91 70.968V78.968C144.863 78.968 146.824 78.3965 148.42 76.9602L143.068 71.0138ZM142.91 70.968H96.5851V78.968H142.91V70.968ZM100.585 74.968V67.992H92.5851V74.968H100.585ZM96.5851 71.992H143.782V63.992H96.5851V71.992ZM141.443 64.7473L136.756 68.1263L141.434 74.6157L146.121 71.2367L141.443 64.7473ZM143.094 71.44C143.176 66.6907 142.316 62.2843 140.415 58.3092L133.198 61.7608C134.494 64.471 135.159 67.622 135.096 71.302L143.094 71.44ZM140.415 58.3092C138.509 54.3247 135.727 51.1212 132.081 48.809L127.797 55.565C130.109 57.0315 131.906 59.0599 133.198 61.7608L140.415 58.3092ZM132.119 48.8332C128.457 46.4532 124.181 45.353 119.475 45.353V53.353C122.908 53.353 125.607 54.1422 127.759 55.5408L132.119 48.8332ZM119.475 45.353C114.676 45.353 110.286 46.4986 106.448 48.9084L110.702 55.6836C113.114 54.1694 115.991 53.353 119.475 53.353V45.353ZM106.448 48.9084C102.667 51.2829 99.7468 54.5773 97.6944 58.6821L104.85 62.2599C106.285 59.3887 108.234 57.2331 110.702 55.6836L106.448 48.9084ZM97.6792 58.7128C95.699 62.7593 94.7651 67.3016 94.7651 72.243H102.765C102.765 68.319 103.502 65.0133 104.865 62.2292L97.6792 58.7128ZM94.7651 72.243C94.7651 77.2598 95.8394 81.8667 98.0989 85.9512L105.099 82.0788C103.58 79.3326 102.765 76.0915 102.765 72.243H94.7651ZM98.1306 86.0075C100.433 90.0155 103.579 93.2107 107.531 95.5307L111.581 88.6313C108.848 87.0273 106.689 84.8451 105.067 82.0225L98.1306 86.0075ZM107.531 95.5307C111.562 97.8964 116.129 99.024 121.11 99.024V91.024C117.371 91.024 114.236 90.1896 111.581 88.6313L107.531 95.5307ZM121.11 99.024C124.179 99.024 127.221 98.5113 130.223 97.5107L127.693 89.9213C125.463 90.6647 123.273 91.024 121.11 91.024V99.024ZM130.284 97.4898C133.29 96.4336 135.919 95.0557 138.004 93.2553L132.775 87.2007C131.662 88.1616 130.003 89.1091 127.632 89.9422L130.284 97.4898ZM137.922 93.3238C137.96 93.2924 137.987 93.2755 138.002 93.2672C138.016 93.2592 138.023 93.2565 138.025 93.2558C138.027 93.2551 138.031 93.2536 138.041 93.2519C138.052 93.2501 138.075 93.247 138.114 93.247V85.247C136.158 85.247 134.358 85.9031 132.856 87.1322L137.922 93.3238ZM138.399 93.2368C138.492 93.2302 138.483 93.2443 138.411 93.2232C138.377 93.2134 138.341 93.1989 138.305 93.1802C138.269 93.1616 138.244 93.144 138.231 93.1335L143.229 86.8865C141.638 85.6138 139.746 85.1203 137.829 85.2572L138.399 93.2368ZM138.017 92.9492C138.209 93.1263 138.237 93.2042 138.215 93.1614C138.204 93.1387 138.185 93.0941 138.17 93.0308C138.154 92.967 138.147 92.9024 138.147 92.844H146.147C146.147 90.431 144.978 88.4871 143.443 87.0708L138.017 92.9492ZM138.157 93.129C138.149 93.0115 138.168 92.8076 138.266 92.5944C138.356 92.3964 138.448 92.3368 138.387 92.3871L143.509 98.5329C145.24 97.09 146.313 95.0197 146.137 92.559L138.157 93.129ZM138.36 92.41C136.394 94.0785 133.774 95.576 130.396 96.8347L133.189 104.331C137.222 102.829 140.706 100.911 143.536 98.51L138.36 92.41ZM130.461 96.811C127.119 97.9905 124.009 98.545 121.11 98.545V106.545C125.042 106.545 129.053 105.792 133.123 104.355L130.461 96.811ZM175.856 98.621L173.848 102.08C173.856 102.085 173.864 102.089 173.872 102.094L175.856 98.621ZM165.065 87.939L161.592 89.9236C161.605 89.9454 161.617 89.9672 161.63 89.9888L165.065 87.939ZM161.032 72.57H157.032C157.032 72.5871 157.032 72.6042 157.032 72.6213L161.032 72.57ZM162.122 18.07L159.294 15.2416L159.294 15.2416L162.122 18.07ZM168.226 18.07L165.266 20.7607C165.352 20.8546 165.442 20.9444 165.535 21.0298L168.226 18.07ZM169.425 53.168H165.425C165.425 54.9128 166.556 56.4563 168.22 56.9821C169.884 57.5078 171.696 56.8945 172.699 55.4665L169.425 53.168ZM178.908 44.993L180.749 48.544C180.758 48.5398 180.766 48.5356 180.774 48.5313L178.908 44.993ZM207.248 45.865L205.174 49.285C205.187 49.2934 205.201 49.3016 205.215 49.3098L207.248 45.865ZM217.712 56.656L214.216 58.5986C214.223 58.6126 214.231 58.6266 214.239 58.6406L217.712 56.656ZM217.603 87.721L214.154 85.6953C214.146 85.709 214.138 85.7227 214.13 85.7364L217.603 87.721ZM206.812 98.621L208.797 102.094C208.81 102.086 208.824 102.078 208.838 102.07L206.812 98.621ZM202.561 91.972L204.586 95.4217C204.604 95.4109 204.623 95.3999 204.641 95.3888L202.561 91.972ZM210.409 83.797L206.941 81.8045C206.93 81.8232 206.919 81.8419 206.909 81.8608L210.409 83.797ZM210.409 60.58L206.892 62.4851C206.908 62.5145 206.924 62.5436 206.941 62.5725L210.409 60.58ZM202.561 52.405L200.536 55.8547L200.536 55.8547L202.561 52.405ZM179.998 52.405L182.023 55.8547L182.023 55.8547L179.998 52.405ZM172.15 60.58L175.65 62.5162C175.656 62.5059 175.662 62.4955 175.667 62.4851L172.15 60.58ZM172.15 83.797L168.65 85.7332L168.65 85.7332L172.15 83.797ZM179.998 91.972L177.918 95.3888C177.937 95.3999 177.955 95.4109 177.973 95.4217L179.998 91.972ZM191.225 98.545C186.199 98.545 181.769 97.3929 177.841 95.148L173.872 102.094C179.099 105.081 184.915 106.545 191.225 106.545V98.545ZM177.865 95.1618C173.951 92.8894 170.843 89.8156 168.5 85.8892L161.63 89.9888C164.664 95.0731 168.751 99.1206 173.848 102.08L177.865 95.1618ZM168.538 85.9544C166.284 82.0097 165.096 77.5605 165.032 72.5187L157.032 72.6213C157.113 78.9155 158.614 84.7123 161.592 89.9236L168.538 85.9544ZM165.032 72.57V21.122H157.032V72.57H165.032ZM165.032 21.122C165.032 20.8328 165.073 20.7201 165.072 20.7233C165.071 20.7263 165.061 20.7515 165.037 20.7895C165.013 20.828 164.983 20.8659 164.951 20.8984L159.294 15.2416C157.626 16.9089 157.032 19.057 157.032 21.122H165.032ZM164.951 20.8984C164.956 20.8929 164.953 20.8969 164.942 20.9037C164.932 20.9106 164.926 20.9126 164.931 20.9107C164.938 20.908 165.037 20.871 165.283 20.871V12.871C163.095 12.871 160.962 13.5735 159.294 15.2416L164.951 20.8984ZM165.283 20.871C165.377 20.871 165.431 20.8786 165.452 20.8824C165.472 20.8861 165.464 20.8865 165.436 20.8751C165.407 20.8633 165.371 20.8446 165.335 20.8191C165.299 20.7937 165.276 20.7712 165.266 20.7607L171.186 15.3793C169.589 13.6226 167.467 12.871 165.283 12.871V20.871ZM165.535 21.0298C165.512 21.0086 165.483 20.9766 165.455 20.9356C165.426 20.8948 165.41 20.8601 165.402 20.8406C165.387 20.8015 165.425 20.8724 165.425 21.122H173.425C173.425 18.9445 172.723 16.7524 170.917 15.1102L165.535 21.0298ZM165.425 21.122V53.168H173.425V21.122H165.425ZM172.699 55.4665C174.705 52.609 177.362 50.3005 180.749 48.544L177.067 41.442C172.606 43.7548 168.941 46.8963 166.152 50.8695L172.699 55.4665ZM180.774 48.5313C184.151 46.7504 187.936 45.832 192.206 45.832V37.832C186.739 37.832 181.658 39.0209 177.043 41.4547L180.774 48.5313ZM192.206 45.832C197.13 45.832 201.416 47.0058 205.174 49.285L209.323 42.445C204.215 39.3469 198.473 37.832 192.206 37.832V45.832ZM205.215 49.3098C209.024 51.5576 212.011 54.6312 214.216 58.5986L221.209 54.7134C218.326 49.5248 214.338 45.4044 209.281 42.4202L205.215 49.3098ZM214.239 58.6406C216.48 62.5613 217.636 67.0259 217.636 72.134H225.636C225.636 65.7608 224.177 59.9067 221.185 54.6714L214.239 58.6406ZM217.636 72.134C217.636 77.3048 216.448 81.7889 214.154 85.6953L221.052 89.7467C224.135 84.4971 225.636 78.5899 225.636 72.134H217.636ZM214.13 85.7364C211.863 89.7039 208.767 92.8342 204.786 95.1719L208.838 102.07C214.013 99.0305 218.111 94.8941 221.076 89.7056L214.13 85.7364ZM204.828 95.148C200.915 97.3841 196.416 98.545 191.225 98.545V106.545C197.661 106.545 203.554 105.09 208.797 102.094L204.828 95.148ZM191.225 98.915C196.088 98.915 200.576 97.7752 204.586 95.4217L200.536 88.5223C197.861 90.0928 194.792 90.915 191.225 90.915V98.915ZM204.641 95.3888C208.576 92.9935 211.682 89.7588 213.909 85.7332L206.909 81.8608C205.357 84.6658 203.232 86.8812 200.481 88.5552L204.641 95.3888ZM213.878 85.7895C216.224 81.7047 217.352 77.1166 217.352 72.134H209.352C209.352 75.8714 208.518 79.0586 206.941 81.8045L213.878 85.7895ZM217.352 72.134C217.352 67.2112 216.218 62.6621 213.878 58.5875L206.941 62.5725C208.524 65.3286 209.352 68.4822 209.352 72.134H217.352ZM213.926 58.6749C211.698 54.5614 208.573 51.2955 204.586 48.9553L200.536 55.8547C203.235 57.4385 205.341 59.6226 206.892 62.4851L213.926 58.6749ZM204.586 48.9553C200.576 46.6018 196.088 45.462 191.225 45.462V53.462C194.792 53.462 197.861 54.2842 200.536 55.8547L204.586 48.9553ZM191.225 45.462C186.422 45.462 181.972 46.6082 177.973 48.9553L182.023 55.8547C184.709 54.2778 187.744 53.462 191.225 53.462V45.462ZM177.973 48.9553C173.986 51.2955 170.861 54.5614 168.633 58.6749L175.667 62.4851C177.218 59.6226 179.325 57.4385 182.023 55.8547L177.973 48.9553ZM168.65 58.6438C166.401 62.7088 165.316 67.2376 165.316 72.134H173.316C173.316 68.4557 174.12 65.2819 175.65 62.5162L168.65 58.6438ZM165.316 72.134C165.316 77.0905 166.396 81.6583 168.65 85.7332L175.65 81.8608C174.126 79.105 173.316 75.8975 173.316 72.134H165.316ZM168.65 85.7332C170.877 89.7588 173.983 92.9935 177.918 95.3888L182.078 88.5552C179.328 86.8812 177.202 84.6658 175.65 81.8608L168.65 85.7332ZM177.973 95.4217C181.972 97.7688 186.422 98.915 191.225 98.915V90.915C187.744 90.915 184.709 90.0992 182.023 88.5223L177.973 95.4217Z" mask="url(#path-1-outside-1_1322_170)"/><mask id="path-3-outside-2_1322_170" width="203" height="95" x="34" y="65" fill="black" maskUnits="userSpaceOnUse"><rect width="203" height="95" x="34" y="65" fill="white"/><path d="M68.848 155.545C63.1073 155.545 57.948 154.237 53.37 151.621C48.792 148.932 45.1586 145.299 42.47 140.721C39.854 136.143 38.546 130.947 38.546 125.134C38.546 119.393 39.8176 114.234 42.361 109.656C44.977 105.078 48.5013 101.481 52.934 98.865C57.3666 96.1763 62.3806 94.832 67.976 94.832C72.8446 94.832 77.241 95.8857 81.165 97.993C85.089 100.028 88.25 102.753 90.648 106.168V74.122C90.648 72.814 91.0476 71.7967 91.847 71.07C92.6463 70.2707 93.6636 69.871 94.899 69.871C96.1343 69.871 97.1516 70.2707 97.951 71.07C98.7503 71.7967 99.15 72.814 99.15 74.122V125.57C99.0046 131.238 97.5876 136.361 94.899 140.939C92.283 145.444 88.686 149.005 84.108 151.621C79.6026 154.237 74.516 155.545 68.848 155.545ZM68.848 147.915C73.0626 147.915 76.805 146.934 80.075 144.972C83.4176 142.937 86.0336 140.212 87.923 136.797C89.885 133.382 90.866 129.494 90.866 125.134C90.866 120.847 89.885 116.995 87.923 113.58C86.0336 110.092 83.4176 107.367 80.075 105.405C76.805 103.443 73.0626 102.462 68.848 102.462C64.706 102.462 60.9636 103.443 57.621 105.405C54.2783 107.367 51.626 110.092 49.664 113.58C47.702 116.995 46.721 120.847 46.721 125.134C46.721 129.494 47.702 133.382 49.664 136.797C51.626 140.212 54.2783 142.937 57.621 144.972C60.9636 146.934 64.706 147.915 68.848 147.915ZM145.805 155.545C139.919 155.545 134.687 154.273 130.109 151.73C125.604 149.114 122.043 145.517 119.427 140.939C116.884 136.361 115.612 131.129 115.612 125.243C115.612 119.284 116.811 114.052 119.209 109.547C121.68 104.969 125.059 101.372 129.346 98.756C133.634 96.14 138.575 94.832 144.17 94.832C149.693 94.832 154.489 96.1037 158.558 98.647C162.7 101.118 165.898 104.569 168.15 109.002C170.403 113.435 171.529 118.485 171.529 124.153C171.529 125.316 171.166 126.26 170.439 126.987C169.713 127.641 168.768 127.968 167.605 127.968H121.28V120.992H168.477L163.79 124.371C163.863 120.156 163.1 116.378 161.501 113.035C159.903 109.692 157.614 107.076 154.634 105.187C151.728 103.298 148.24 102.353 144.17 102.353C140.028 102.353 136.395 103.334 133.27 105.296C130.146 107.258 127.711 109.983 125.967 113.471C124.296 116.886 123.46 120.81 123.46 125.243C123.46 129.676 124.405 133.6 126.294 137.015C128.256 140.43 130.909 143.119 134.251 145.081C137.594 147.043 141.445 148.024 145.805 148.024C148.421 148.024 151.037 147.588 153.653 146.716C156.342 145.771 158.486 144.609 160.084 143.228C160.884 142.574 161.792 142.247 162.809 142.247C163.827 142.174 164.699 142.429 165.425 143.01C166.37 143.882 166.842 144.827 166.842 145.844C166.915 146.861 166.515 147.733 165.643 148.46C163.245 150.495 160.193 152.202 156.487 153.583C152.781 154.891 149.221 155.545 145.805 155.545ZM203.982 155C202.238 155 200.93 154.055 200.058 152.166L175.86 100.827C175.424 99.8823 175.387 98.9377 175.751 97.993C176.114 97.0483 176.841 96.3217 177.931 95.813C178.948 95.3043 179.929 95.2317 180.874 95.595C181.818 95.9583 182.545 96.6123 183.054 97.557L206.271 147.806H201.802L224.692 97.557C225.128 96.5397 225.854 95.8857 226.872 95.595C227.962 95.2317 229.015 95.268 230.033 95.704C231.05 96.2127 231.74 96.9757 232.104 97.993C232.467 98.9377 232.431 99.846 231.995 100.718L208.124 152.166C207.252 154.055 205.871 155 203.982 155Z"/></mask><path fill="#68FC65" d="M68.848 155.545C63.1073 155.545 57.948 154.237 53.37 151.621C48.792 148.932 45.1586 145.299 42.47 140.721C39.854 136.143 38.546 130.947 38.546 125.134C38.546 119.393 39.8176 114.234 42.361 109.656C44.977 105.078 48.5013 101.481 52.934 98.865C57.3666 96.1763 62.3806 94.832 67.976 94.832C72.8446 94.832 77.241 95.8857 81.165 97.993C85.089 100.028 88.25 102.753 90.648 106.168V74.122C90.648 72.814 91.0476 71.7967 91.847 71.07C92.6463 70.2707 93.6636 69.871 94.899 69.871C96.1343 69.871 97.1516 70.2707 97.951 71.07C98.7503 71.7967 99.15 72.814 99.15 74.122V125.57C99.0046 131.238 97.5876 136.361 94.899 140.939C92.283 145.444 88.686 149.005 84.108 151.621C79.6026 154.237 74.516 155.545 68.848 155.545ZM68.848 147.915C73.0626 147.915 76.805 146.934 80.075 144.972C83.4176 142.937 86.0336 140.212 87.923 136.797C89.885 133.382 90.866 129.494 90.866 125.134C90.866 120.847 89.885 116.995 87.923 113.58C86.0336 110.092 83.4176 107.367 80.075 105.405C76.805 103.443 73.0626 102.462 68.848 102.462C64.706 102.462 60.9636 103.443 57.621 105.405C54.2783 107.367 51.626 110.092 49.664 113.58C47.702 116.995 46.721 120.847 46.721 125.134C46.721 129.494 47.702 133.382 49.664 136.797C51.626 140.212 54.2783 142.937 57.621 144.972C60.9636 146.934 64.706 147.915 68.848 147.915ZM145.805 155.545C139.919 155.545 134.687 154.273 130.109 151.73C125.604 149.114 122.043 145.517 119.427 140.939C116.884 136.361 115.612 131.129 115.612 125.243C115.612 119.284 116.811 114.052 119.209 109.547C121.68 104.969 125.059 101.372 129.346 98.756C133.634 96.14 138.575 94.832 144.17 94.832C149.693 94.832 154.489 96.1037 158.558 98.647C162.7 101.118 165.898 104.569 168.15 109.002C170.403 113.435 171.529 118.485 171.529 124.153C171.529 125.316 171.166 126.26 170.439 126.987C169.713 127.641 168.768 127.968 167.605 127.968H121.28V120.992H168.477L163.79 124.371C163.863 120.156 163.1 116.378 161.501 113.035C159.903 109.692 157.614 107.076 154.634 105.187C151.728 103.298 148.24 102.353 144.17 102.353C140.028 102.353 136.395 103.334 133.27 105.296C130.146 107.258 127.711 109.983 125.967 113.471C124.296 116.886 123.46 120.81 123.46 125.243C123.46 129.676 124.405 133.6 126.294 137.015C128.256 140.43 130.909 143.119 134.251 145.081C137.594 147.043 141.445 148.024 145.805 148.024C148.421 148.024 151.037 147.588 153.653 146.716C156.342 145.771 158.486 144.609 160.084 143.228C160.884 142.574 161.792 142.247 162.809 142.247C163.827 142.174 164.699 142.429 165.425 143.01C166.37 143.882 166.842 144.827 166.842 145.844C166.915 146.861 166.515 147.733 165.643 148.46C163.245 150.495 160.193 152.202 156.487 153.583C152.781 154.891 149.221 155.545 145.805 155.545ZM203.982 155C202.238 155 200.93 154.055 200.058 152.166L175.86 100.827C175.424 99.8823 175.387 98.9377 175.751 97.993C176.114 97.0483 176.841 96.3217 177.931 95.813C178.948 95.3043 179.929 95.2317 180.874 95.595C181.818 95.9583 182.545 96.6123 183.054 97.557L206.271 147.806H201.802L224.692 97.557C225.128 96.5397 225.854 95.8857 226.872 95.595C227.962 95.2317 229.015 95.268 230.033 95.704C231.05 96.2127 231.74 96.9757 232.104 97.993C232.467 98.9377 232.431 99.846 231.995 100.718L208.124 152.166C207.252 154.055 205.871 155 203.982 155Z"/><path fill="url(#paint2_linear_1322_170)" d="M53.37 151.621L51.3443 155.07C51.3579 155.078 51.3717 155.086 51.3854 155.094L53.37 151.621ZM42.47 140.721L38.997 142.706C39.0049 142.719 39.0128 142.733 39.0208 142.747L42.47 140.721ZM42.361 109.656L38.888 107.671C38.88 107.685 38.8721 107.699 38.8643 107.713L42.361 109.656ZM52.934 98.865L54.967 102.31C54.9808 102.302 54.9947 102.293 55.0084 102.285L52.934 98.865ZM81.165 97.993L79.2725 101.517C79.2895 101.526 79.3066 101.535 79.3237 101.544L81.165 97.993ZM90.648 106.168L87.3743 108.467C88.377 109.895 90.1895 110.508 91.8533 109.982C93.517 109.456 94.648 107.913 94.648 106.168H90.648ZM91.847 71.07L94.5377 74.0298C94.5846 73.9871 94.6305 73.9433 94.6754 73.8984L91.847 71.07ZM97.951 71.07L95.1225 73.8984C95.1674 73.9433 95.2133 73.9871 95.2603 74.0298L97.951 71.07ZM99.15 125.57L103.149 125.673C103.15 125.638 103.15 125.604 103.15 125.57L99.15 125.57ZM94.899 140.939L91.4498 138.913C91.4465 138.919 91.4431 138.925 91.4398 138.93L94.899 140.939ZM84.108 151.621L82.1234 148.148C82.1154 148.153 82.1074 148.157 82.0994 148.162L84.108 151.621ZM80.075 144.972L82.133 148.402C82.1402 148.398 82.1475 148.393 82.1548 148.389L80.075 144.972ZM87.923 136.797L84.4546 134.805C84.4438 134.823 84.4333 134.842 84.4228 134.861L87.923 136.797ZM87.923 113.58L84.4058 115.485C84.4217 115.514 84.4379 115.544 84.4546 115.572L87.923 113.58ZM80.075 105.405L78.017 108.835C78.028 108.842 78.0391 108.848 78.0502 108.855L80.075 105.405ZM57.621 105.405L59.6458 108.855L59.6458 108.855L57.621 105.405ZM49.664 113.58L53.1324 115.572C53.1384 115.562 53.1444 115.552 53.1503 115.541L49.664 113.58ZM49.664 136.797L46.1956 138.789L46.1956 138.789L49.664 136.797ZM57.621 144.972L55.5412 148.389C55.5594 148.4 55.5778 148.411 55.5962 148.422L57.621 144.972ZM68.848 151.545C63.7398 151.545 59.2752 150.388 55.3545 148.148L51.3854 155.094C56.6207 158.086 62.4748 159.545 68.848 159.545V151.545ZM55.3957 148.172C51.4057 145.829 48.2624 142.685 45.9191 138.695L39.0208 142.747C42.0549 147.913 46.1782 152.036 51.3443 155.07L55.3957 148.172ZM45.9429 138.736C43.7069 134.823 42.546 130.324 42.546 125.134H34.546C34.546 131.57 36.001 137.463 38.997 142.706L45.9429 138.736ZM42.546 125.134C42.546 120.006 43.6755 115.526 45.8576 111.599L38.8643 107.713C35.9598 112.942 34.546 118.781 34.546 125.134H42.546ZM45.8339 111.641C48.1138 107.651 51.1482 104.564 54.967 102.31L50.901 95.4202C45.8544 98.3984 41.8401 102.505 38.888 107.671L45.8339 111.641ZM55.0084 102.285C58.7661 100.006 63.052 98.832 67.976 98.832V90.832C61.7093 90.832 55.9671 92.3469 50.8595 95.445L55.0084 102.285ZM67.976 98.832C72.2471 98.832 75.9833 99.7506 79.2725 101.517L83.0575 94.469C78.4986 92.0207 73.4422 90.832 67.976 90.832V98.832ZM79.3237 101.544C82.7113 103.301 85.368 105.609 87.3743 108.467L93.9216 103.869C91.132 99.8963 87.4667 96.7548 83.0062 94.442L79.3237 101.544ZM94.648 106.168V74.122H86.648V106.168H94.648ZM94.648 74.122C94.648 73.8724 94.6861 73.8015 94.6707 73.8406C94.6631 73.8601 94.6467 73.8947 94.6186 73.9356C94.5904 73.9766 94.5609 74.0086 94.5377 74.0298L89.1563 68.1102C87.3499 69.7524 86.648 71.9445 86.648 74.122H94.648ZM94.6754 73.8984C94.692 73.8819 94.6972 73.8796 94.6907 73.8839C94.684 73.8883 94.6763 73.8921 94.6721 73.8938C94.6582 73.8992 94.7171 73.871 94.899 73.871V65.871C92.7111 65.871 90.6413 66.6188 89.0186 68.2416L94.6754 73.8984ZM94.899 73.871C95.0808 73.871 95.1398 73.8992 95.1259 73.8938C95.1217 73.8921 95.114 73.8883 95.1072 73.8839C95.1008 73.8796 95.106 73.8819 95.1225 73.8984L100.779 68.2416C99.1566 66.6188 97.0868 65.871 94.899 65.871V73.871ZM95.2603 74.0298C95.237 74.0086 95.2076 73.9766 95.1794 73.9356C95.1513 73.8948 95.1349 73.8601 95.1272 73.8406C95.1119 73.8015 95.15 73.8724 95.15 74.122H103.15C103.15 71.9445 102.448 69.7524 100.642 68.1102L95.2603 74.0298ZM95.15 74.122V125.57H103.15V74.122H95.15ZM95.1513 125.467C95.0221 130.506 93.7721 134.959 91.4498 138.913L98.3481 142.965C101.403 137.763 102.987 131.97 103.149 125.673L95.1513 125.467ZM91.4398 138.93C89.1822 142.819 86.0972 145.877 82.1234 148.148L86.0925 155.094C91.2747 152.133 95.3837 148.07 98.3581 142.948L91.4398 138.93ZM82.0994 148.162C78.2572 150.393 73.8745 151.545 68.848 151.545V159.545C75.1575 159.545 80.948 158.081 86.1165 155.08L82.0994 148.162ZM68.848 151.915C73.7091 151.915 78.1773 150.775 82.133 148.402L78.017 141.542C75.4327 143.093 72.4162 143.915 68.848 143.915V151.915ZM82.1548 148.389C86.0899 145.993 89.1962 142.759 91.4231 138.733L84.4228 134.861C82.8711 137.666 80.7454 139.881 77.9952 141.555L82.1548 148.389ZM91.3914 138.789C93.738 134.705 94.866 130.117 94.866 125.134H86.866C86.866 128.871 86.032 132.059 84.4546 134.805L91.3914 138.789ZM94.866 125.134C94.866 120.211 93.7321 115.662 91.3914 111.587L84.4546 115.572C86.0378 118.329 86.866 121.482 86.866 125.134H94.866ZM91.4401 111.675C89.212 107.561 86.0867 104.296 82.0998 101.955L78.0502 108.855C80.7486 110.438 82.8553 112.623 84.4058 115.485L91.4401 111.675ZM82.133 101.975C78.1773 99.6016 73.7091 98.462 68.848 98.462V106.462C72.4162 106.462 75.4327 107.284 78.017 108.835L82.133 101.975ZM68.848 98.462C64.0448 98.462 59.595 99.6082 55.5962 101.955L59.6458 108.855C62.3322 107.278 65.3672 106.462 68.848 106.462V98.462ZM55.5962 101.955C51.6228 104.288 48.4748 107.535 46.1777 111.619L53.1503 115.541C54.7772 112.649 56.9338 110.446 59.6458 108.855L55.5962 101.955ZM46.1956 111.588C43.8548 115.662 42.721 120.211 42.721 125.134H50.721C50.721 121.482 51.5491 118.329 53.1324 115.572L46.1956 111.588ZM42.721 125.134C42.721 130.117 43.849 134.705 46.1956 138.789L53.1324 134.805C51.555 132.059 50.721 128.871 50.721 125.134H42.721ZM46.1956 138.789C48.4908 142.785 51.6192 146.001 55.5412 148.389L59.7008 141.555C56.9374 139.873 54.7611 137.64 53.1324 134.805L46.1956 138.789ZM55.5962 148.422C59.5951 150.769 64.0448 151.915 68.848 151.915V143.915C65.3672 143.915 62.3322 143.099 59.6458 141.522L55.5962 148.422ZM130.109 151.73L128.101 155.189C128.123 155.202 128.145 155.214 128.167 155.227L130.109 151.73ZM119.427 140.939L115.931 142.882C115.939 142.896 115.946 142.91 115.954 142.924L119.427 140.939ZM119.209 109.547L115.689 107.647C115.686 107.654 115.682 107.661 115.678 107.668L119.209 109.547ZM129.346 98.756L131.43 102.171L129.346 98.756ZM158.558 98.647L156.438 102.039C156.462 102.054 156.485 102.068 156.509 102.082L158.558 98.647ZM168.15 109.002L171.716 107.19L171.716 107.19L168.15 109.002ZM170.439 126.987L173.115 129.96C173.167 129.913 173.218 129.865 173.268 129.815L170.439 126.987ZM121.28 127.968H117.28C117.28 130.177 119.071 131.968 121.28 131.968V127.968ZM121.28 120.992V116.992C119.071 116.992 117.28 118.783 117.28 120.992H121.28ZM168.477 120.992L170.817 124.237C172.224 123.222 172.817 121.415 172.284 119.763C171.751 118.111 170.213 116.992 168.477 116.992V120.992ZM163.79 124.371L159.791 124.302C159.765 125.816 160.596 127.214 161.937 127.916C163.279 128.617 164.902 128.501 166.13 127.616L163.79 124.371ZM161.501 113.035L165.11 111.309L165.11 111.309L161.501 113.035ZM154.634 105.187L152.454 108.541C152.467 108.549 152.48 108.557 152.492 108.565L154.634 105.187ZM133.27 105.296L131.143 101.908L131.143 101.908L133.27 105.296ZM125.967 113.471L122.39 111.682C122.385 111.692 122.38 111.703 122.375 111.713L125.967 113.471ZM126.294 137.015L122.794 138.951C122.805 138.97 122.815 138.989 122.826 139.007L126.294 137.015ZM134.251 145.081L132.227 148.531L132.227 148.531L134.251 145.081ZM153.653 146.716L154.918 150.511C154.939 150.504 154.959 150.497 154.979 150.49L153.653 146.716ZM160.084 143.228L157.551 140.132C157.524 140.155 157.497 140.178 157.47 140.201L160.084 143.228ZM162.809 142.247V146.247C162.904 146.247 163 146.244 163.094 146.237L162.809 142.247ZM165.425 143.01L168.138 140.071C168.069 140.007 167.998 139.945 167.924 139.887L165.425 143.01ZM166.842 145.844H162.842C162.842 145.939 162.846 146.034 162.853 146.129L166.842 145.844ZM165.643 148.46L163.083 145.387C163.074 145.395 163.064 145.402 163.055 145.41L165.643 148.46ZM156.487 153.583L157.819 157.355C157.84 157.347 157.862 157.339 157.884 157.331L156.487 153.583ZM145.805 151.545C140.513 151.545 135.965 150.407 132.052 148.233L128.167 155.227C133.41 158.139 139.325 159.545 145.805 159.545V151.545ZM132.118 148.271C128.23 146.013 125.171 142.928 122.9 138.954L115.954 142.924C118.916 148.106 122.978 152.215 128.101 155.189L132.118 148.271ZM122.924 138.996C120.75 135.083 119.612 130.535 119.612 125.243H111.612C111.612 131.723 113.018 137.639 115.931 142.882L122.924 138.996ZM119.612 125.243C119.612 119.83 120.698 115.263 122.74 111.426L115.678 107.668C112.925 112.841 111.612 118.739 111.612 125.243H119.612ZM122.729 111.447C124.876 107.469 127.769 104.404 131.43 102.171L127.263 95.3414C122.349 98.3399 118.484 102.469 115.689 107.647L122.729 111.447ZM131.43 102.171C135.02 99.98 139.224 98.832 144.17 98.832V90.832C137.926 90.832 132.248 92.3 127.263 95.3414L131.43 102.171ZM144.17 98.832C149.059 98.832 153.096 99.95 156.438 102.039L160.678 95.255C155.882 92.2573 150.327 90.832 144.17 90.832V98.832ZM156.509 102.082C159.982 104.154 162.663 107.033 164.584 110.814L171.716 107.19C169.133 102.106 165.419 98.0818 160.607 95.2117L156.509 102.082ZM164.584 110.814C166.514 114.611 167.529 119.026 167.529 124.153H175.529C175.529 117.944 174.292 112.258 171.716 107.19L164.584 110.814ZM167.529 124.153C167.529 124.235 167.523 124.284 167.519 124.304C167.516 124.324 167.515 124.319 167.523 124.298C167.532 124.275 167.546 124.246 167.566 124.216C167.585 124.186 167.603 124.167 167.611 124.159L173.268 129.815C174.846 128.238 175.529 126.225 175.529 124.153H167.529ZM167.764 124.014C167.78 123.999 167.803 123.982 167.829 123.967C167.854 123.952 167.872 123.945 167.877 123.943C167.888 123.939 167.813 123.968 167.605 123.968V131.968C169.559 131.968 171.519 131.396 173.115 129.96L167.764 124.014ZM167.605 123.968H121.28V131.968H167.605V123.968ZM125.28 127.968V120.992H117.28V127.968H125.28ZM121.28 124.992H168.477V116.992H121.28V124.992ZM166.138 117.747L161.451 121.126L166.13 127.616L170.817 124.237L166.138 117.747ZM167.79 124.44C167.872 119.691 167.011 115.284 165.11 111.309L157.893 114.761C159.189 117.471 159.854 120.622 159.791 124.302L167.79 124.44ZM165.11 111.309C163.204 107.325 160.423 104.121 156.777 101.809L152.492 108.565C154.805 110.032 156.601 112.06 157.893 114.761L165.11 111.309ZM156.814 101.833C153.153 99.4532 148.876 98.353 144.17 98.353V106.353C147.603 106.353 150.303 107.142 152.454 108.541L156.814 101.833ZM144.17 98.353C139.371 98.353 134.981 99.4986 131.143 101.908L135.397 108.684C137.809 107.169 140.686 106.353 144.17 106.353V98.353ZM131.143 101.908C127.362 104.283 124.442 107.577 122.39 111.682L129.545 115.26C130.981 112.389 132.93 110.233 135.397 108.684L131.143 101.908ZM122.375 111.713C120.394 115.759 119.46 120.302 119.46 125.243H127.46C127.46 121.319 128.198 118.013 129.56 115.229L122.375 111.713ZM119.46 125.243C119.46 130.26 120.535 134.867 122.794 138.951L129.795 135.079C128.275 132.333 127.46 129.092 127.46 125.243H119.46ZM122.826 139.007C125.128 143.016 128.274 146.211 132.227 148.531L136.276 141.631C133.543 140.027 131.384 137.845 129.763 135.023L122.826 139.007ZM132.227 148.531C136.257 150.896 140.824 152.024 145.805 152.024V144.024C142.066 144.024 138.931 143.19 136.276 141.631L132.227 148.531ZM145.805 152.024C148.874 152.024 151.917 151.511 154.918 150.511L152.388 142.921C150.158 143.665 147.969 144.024 145.805 144.024V152.024ZM154.979 150.49C157.986 149.434 160.614 148.056 162.699 146.255L157.47 140.201C156.357 141.162 154.698 142.109 152.327 142.942L154.979 150.49ZM162.617 146.324C162.656 146.292 162.682 146.276 162.697 146.267C162.711 146.259 162.718 146.256 162.72 146.256C162.722 146.255 162.726 146.254 162.736 146.252C162.747 146.25 162.77 146.247 162.809 146.247V138.247C160.853 138.247 159.054 138.903 157.551 140.132L162.617 146.324ZM163.094 146.237C163.187 146.23 163.179 146.244 163.106 146.223C163.073 146.213 163.036 146.199 163 146.18C162.964 146.162 162.94 146.144 162.927 146.133L167.924 139.887C166.333 138.614 164.441 138.12 162.524 138.257L163.094 146.237ZM162.712 145.949C162.904 146.126 162.932 146.204 162.91 146.161C162.899 146.139 162.88 146.094 162.865 146.031C162.85 145.967 162.842 145.902 162.842 145.844H170.842C170.842 143.431 169.673 141.487 168.138 140.071L162.712 145.949ZM162.853 146.129C162.844 146.012 162.863 145.808 162.961 145.594C163.052 145.396 163.143 145.337 163.083 145.387L168.204 151.533C169.936 150.09 171.008 148.02 170.832 145.559L162.853 146.129ZM163.055 145.41C161.089 147.079 158.47 148.576 155.091 149.835L157.884 157.331C161.917 155.829 165.402 153.911 168.231 151.51L163.055 145.41ZM155.156 149.811C151.814 150.99 148.705 151.545 145.805 151.545V159.545C149.737 159.545 153.748 158.792 157.819 157.355L155.156 149.811ZM200.058 152.166L203.689 150.49C203.685 150.48 203.68 150.47 203.676 150.461L200.058 152.166ZM175.86 100.827L172.228 102.503C172.232 102.513 172.237 102.523 172.241 102.532L175.86 100.827ZM175.751 97.993L179.484 99.4289L179.484 99.4289L175.751 97.993ZM177.931 95.813L179.622 99.4377C179.655 99.4225 179.687 99.4068 179.719 99.3907L177.931 95.813ZM180.874 95.595L182.309 91.8616L182.309 91.8616L180.874 95.595ZM183.054 97.557L186.685 95.8793C186.651 95.8053 186.614 95.7324 186.575 95.6606L183.054 97.557ZM206.271 147.806V151.806C207.635 151.806 208.905 151.111 209.64 149.961C210.375 148.812 210.474 147.367 209.902 146.128L206.271 147.806ZM201.802 147.806L198.161 146.148C197.597 147.386 197.701 148.826 198.438 149.97C199.174 151.114 200.441 151.806 201.802 151.806V147.806ZM224.692 97.557L228.332 99.2152C228.344 99.1878 228.356 99.1603 228.368 99.1327L224.692 97.557ZM226.872 95.595L227.97 99.4411C228.026 99.4252 228.082 99.4081 228.136 99.3897L226.872 95.595ZM230.033 95.704L231.821 92.1263C231.751 92.0913 231.68 92.0583 231.608 92.0274L230.033 95.704ZM232.104 97.993L228.337 99.3383C228.347 99.3687 228.359 99.3989 228.37 99.4289L232.104 97.993ZM231.995 100.718L228.417 98.9291C228.399 98.964 228.383 98.9991 228.366 99.0345L231.995 100.718ZM208.124 152.166L204.495 150.482L204.492 150.49L208.124 152.166ZM203.982 151C203.91 151 203.903 150.991 203.938 151.002C203.976 151.013 204.013 151.033 204.035 151.049C204.077 151.079 203.919 150.987 203.689 150.49L196.426 153.842C197.068 155.235 198 156.559 199.351 157.534C200.742 158.539 202.341 159 203.982 159V151ZM203.676 150.461L179.478 99.1216L172.241 102.532L196.439 153.871L203.676 150.461ZM179.491 99.1508C179.48 99.1263 179.482 99.126 179.488 99.1484C179.494 99.1716 179.501 99.2089 179.502 99.2563C179.504 99.3039 179.501 99.3478 179.494 99.3837C179.488 99.4188 179.482 99.4347 179.484 99.4289L172.017 96.5571C171.254 98.5415 171.353 100.608 172.228 102.503L179.491 99.1508ZM179.484 99.4289C179.475 99.4514 179.461 99.4804 179.442 99.5104C179.422 99.5403 179.405 99.5597 179.397 99.5679C179.379 99.5851 179.429 99.5278 179.622 99.4377L176.239 92.1883C174.4 93.0467 172.821 94.4677 172.017 96.5571L179.484 99.4289ZM179.719 99.3907C179.834 99.3335 179.829 99.3584 179.725 99.3661C179.675 99.3697 179.619 99.3681 179.561 99.3594C179.504 99.3508 179.462 99.3376 179.438 99.3284L182.309 91.8616C180.18 91.0426 178.026 91.2929 176.142 92.2353L179.719 99.3907ZM179.438 99.3284C179.458 99.3362 179.464 99.3405 179.461 99.3388C179.458 99.337 179.454 99.3338 179.451 99.3312C179.448 99.3287 179.454 99.3328 179.466 99.3488C179.479 99.3652 179.502 99.398 179.532 99.4534L186.575 95.6606C185.643 93.9288 184.203 92.59 182.309 91.8616L179.438 99.3284ZM179.422 99.2347L202.639 149.484L209.902 146.128L186.685 95.8793L179.422 99.2347ZM206.271 143.806H201.802V151.806H206.271V143.806ZM205.442 149.464L228.332 99.2152L221.051 95.8988L198.161 146.148L205.442 149.464ZM228.368 99.1327C228.388 99.0863 228.361 99.1676 228.239 99.2767C228.183 99.3273 228.124 99.3683 228.068 99.3983C228.014 99.4278 227.977 99.4391 227.97 99.4411L225.773 91.7489C223.538 92.3873 221.9 93.9168 221.015 95.9813L228.368 99.1327ZM228.136 99.3897C228.27 99.3451 228.332 99.347 228.341 99.3474C228.349 99.3476 228.381 99.3478 228.457 99.3806L231.608 92.0274C229.654 91.1897 227.587 91.1401 225.607 91.8003L228.136 99.3897ZM228.244 99.2817C228.302 99.3107 228.333 99.3322 228.345 99.3414C228.357 99.3501 228.355 99.3504 228.347 99.3414C228.339 99.3322 228.332 99.3221 228.327 99.315C228.323 99.3083 228.328 99.3139 228.337 99.3383L235.871 96.6477C235.141 94.6037 233.707 93.0693 231.821 92.1263L228.244 99.2817ZM228.37 99.4289C228.379 99.4506 228.346 99.3717 228.352 99.2229C228.358 99.0702 228.4 98.963 228.417 98.9291L235.572 102.507C236.532 100.587 236.586 98.5055 235.837 96.5571L228.37 99.4289ZM228.366 99.0345L204.495 150.482L211.752 153.85L235.623 102.402L228.366 99.0345ZM204.492 150.49C204.285 150.937 204.14 151.014 204.175 150.99C204.188 150.982 204.2 150.978 204.193 150.98C204.182 150.983 204.119 151 203.982 151V159C205.624 159 207.253 158.578 208.693 157.593C210.109 156.624 211.09 155.284 211.755 153.842L204.492 150.49Z" mask="url(#path-3-outside-2_1322_170)"/><mask id="path-5-outside-3_1322_170" width="89" height="33" x="2.1486" y="0.437256" fill="black" maskUnits="userSpaceOnUse"><rect width="89" height="33" x="2.1486" y="0.437256" fill="white"/><path d="M6.88106 31.4373C6.38772 31.4373 5.96839 31.2769 5.62306 30.9563C5.30239 30.6109 5.14206 30.2039 5.14206 29.7353C5.14206 29.2419 5.30239 28.8349 5.62306 28.5143L16.3901 15.8603C17.1054 15.0709 17.6481 14.2816 18.0181 13.4923C18.4127 12.7029 18.6101 11.9629 18.6101 11.2723C18.6101 10.1623 18.4127 9.20025 18.0181 8.38625C17.6234 7.54759 17.0437 6.89392 16.2791 6.42525C15.5391 5.95659 14.6757 5.72225 13.6891 5.72225C12.7024 5.72225 11.8144 5.98125 11.0251 6.49925C10.2357 6.99259 9.61906 7.65859 9.17506 8.49726C8.73106 9.33592 8.50906 10.2609 8.50906 11.2723C8.50906 11.7163 8.33639 12.1109 7.99106 12.4563C7.67039 12.7769 7.26339 12.9373 6.77006 12.9373C6.30139 12.9373 5.89439 12.7769 5.54906 12.4563C5.22839 12.1109 5.06806 11.7163 5.06806 11.2723C5.06806 9.59492 5.43806 8.10259 6.17806 6.79526C6.94272 5.48792 7.97872 4.45192 9.28606 3.68725C10.5934 2.92259 12.0611 2.54026 13.6891 2.54026C15.3417 2.54026 16.7847 2.89792 18.0181 3.61325C19.2514 4.32859 20.2134 5.33992 20.9041 6.64726C21.5947 7.95459 21.9401 9.49625 21.9401 11.2723C21.9401 12.0616 21.7797 12.8509 21.4591 13.6403C21.1631 14.4296 20.7684 15.1819 20.2751 15.8973C19.8064 16.6126 19.3131 17.2663 18.7951 17.8583L9.95206 27.9963H20.7561C21.2494 27.9963 21.6564 28.1813 21.9771 28.5513C22.3224 28.8966 22.4951 29.2913 22.4951 29.7353C22.4951 30.2039 22.3224 30.6109 21.9771 30.9563C21.6564 31.2769 21.2494 31.4373 20.7561 31.4373H6.88106ZM34.9256 31.4373C33.0756 31.4373 31.4969 30.8699 30.1896 29.7353C28.8823 28.5759 27.8833 26.9233 27.1926 24.7773C26.5019 22.6066 26.1566 20.0043 26.1566 16.9703C26.1566 13.9363 26.5019 11.3463 27.1926 9.20026C27.8833 7.02959 28.8823 5.37692 30.1896 4.24226C31.4969 3.08292 33.0756 2.50325 34.9256 2.50325C36.8003 2.50325 38.3913 3.09525 39.6986 4.27925C41.0306 5.43859 42.0296 7.10359 42.6956 9.27425C43.3863 11.4203 43.7316 13.9856 43.7316 16.9703C43.7316 19.9549 43.3863 22.5326 42.6956 24.7033C42.0296 26.8493 41.0306 28.5143 39.6986 29.6983C38.3913 30.8576 36.8003 31.4373 34.9256 31.4373ZM34.9256 27.9593C36.1589 27.9593 37.1579 27.4906 37.9226 26.5533C38.7119 25.5913 39.3039 24.2839 39.6986 22.6313C40.0933 20.9539 40.2906 19.0669 40.2906 16.9703C40.2906 14.8736 40.0933 12.9989 39.6986 11.3463C39.3039 9.66892 38.7119 8.34926 37.9226 7.38725C37.1333 6.42526 36.1343 5.94426 34.9256 5.94426C33.7416 5.94426 32.7549 6.42526 31.9656 7.38725C31.1763 8.32459 30.5843 9.63192 30.1896 11.3093C29.7949 12.9619 29.5976 14.8489 29.5976 16.9703C29.5976 19.0916 29.7949 20.9786 30.1896 22.6313C30.5843 24.2839 31.1763 25.5913 31.9656 26.5533C32.7549 27.4906 33.7416 27.9593 34.9256 27.9593ZM49.8068 31.4373C49.3135 31.4373 48.8942 31.2769 48.5488 30.9563C48.2282 30.6109 48.0678 30.2039 48.0678 29.7353C48.0678 29.2419 48.2282 28.8349 48.5488 28.5143L59.3158 15.8603C60.0312 15.0709 60.5738 14.2816 60.9438 13.4923C61.3385 12.7029 61.5358 11.9629 61.5358 11.2723C61.5358 10.1623 61.3385 9.20025 60.9438 8.38625C60.5492 7.54759 59.9695 6.89392 59.2048 6.42525C58.4648 5.95659 57.6015 5.72225 56.6148 5.72225C55.6282 5.72225 54.7402 5.98125 53.9508 6.49925C53.1615 6.99259 52.5448 7.65859 52.1008 8.49726C51.6568 9.33592 51.4348 10.2609 51.4348 11.2723C51.4348 11.7163 51.2622 12.1109 50.9168 12.4563C50.5962 12.7769 50.1892 12.9373 49.6958 12.9373C49.2272 12.9373 48.8202 12.7769 48.4748 12.4563C48.1542 12.1109 47.9938 11.7163 47.9938 11.2723C47.9938 9.59492 48.3638 8.10259 49.1038 6.79526C49.8685 5.48792 50.9045 4.45192 52.2118 3.68725C53.5192 2.92259 54.9868 2.54026 56.6148 2.54026C58.2675 2.54026 59.7105 2.89792 60.9438 3.61325C62.1772 4.32859 63.1392 5.33992 63.8298 6.64726C64.5205 7.95459 64.8658 9.49625 64.8658 11.2723C64.8658 12.0616 64.7055 12.8509 64.3848 13.6403C64.0888 14.4296 63.6942 15.1819 63.2008 15.8973C62.7322 16.6126 62.2388 17.2663 61.7208 17.8583L52.8778 27.9963H63.6818C64.1752 27.9963 64.5822 28.1813 64.9028 28.5513C65.2482 28.8966 65.4208 29.2913 65.4208 29.7353C65.4208 30.2039 65.2482 30.6109 64.9028 30.9563C64.5822 31.2769 64.1752 31.4373 63.6818 31.4373H49.8068ZM79.0354 31.4373C77.2347 31.4373 75.6314 31.0303 74.2254 30.2163C72.8194 29.3776 71.6971 28.2553 70.8584 26.8493C70.0444 25.4186 69.6374 23.8029 69.6374 22.0023C69.6374 21.5089 69.7977 21.1019 70.1184 20.7813C70.4391 20.4606 70.8337 20.3003 71.3024 20.3003C71.8204 20.3003 72.2397 20.4606 72.5604 20.7813C72.9057 21.1019 73.0784 21.5089 73.0784 22.0023C73.0784 23.1369 73.3374 24.1606 73.8554 25.0733C74.3734 25.9859 75.0764 26.7013 75.9644 27.2193C76.8771 27.7373 77.9007 27.9963 79.0354 27.9963C80.1701 27.9963 81.1814 27.7373 82.0694 27.2193C82.9821 26.7013 83.6974 25.9859 84.2154 25.0733C84.7334 24.1606 84.9924 23.1369 84.9924 22.0023C84.9924 20.8676 84.7334 19.8563 84.2154 18.9683C83.6974 18.0556 82.9821 17.3403 82.0694 16.8223C81.1814 16.3043 80.1701 16.0453 79.0354 16.0453H72.7454C72.2521 16.0453 71.8451 15.8849 71.5244 15.5643C71.2037 15.2189 71.0434 14.7996 71.0434 14.3063V4.27925C71.0434 3.78592 71.2037 3.37892 71.5244 3.05826C71.8451 2.71292 72.2521 2.54026 72.7454 2.54026H85.3254C85.7941 2.54026 86.1887 2.71292 86.5094 3.05826C86.8547 3.40359 87.0274 3.79826 87.0274 4.24226C87.0274 4.71092 86.8671 5.11792 86.5464 5.46326C86.2257 5.78392 85.8187 5.94426 85.3254 5.94426H74.4474V12.6043H79.0354C80.8361 12.6043 82.4394 13.0236 83.8454 13.8623C85.2514 14.6763 86.3614 15.7986 87.1754 17.2293C88.0141 18.6353 88.4334 20.2263 88.4334 22.0023C88.4334 23.7783 88.0141 25.3816 87.1754 26.8123C86.3614 28.2429 85.2514 29.3776 83.8454 30.2163C82.4394 31.0303 80.8361 31.4373 79.0354 31.4373Z"/></mask><path fill="#68FC65" d="M6.88106 31.4373C6.38772 31.4373 5.96839 31.2769 5.62306 30.9563C5.30239 30.6109 5.14206 30.2039 5.14206 29.7353C5.14206 29.2419 5.30239 28.8349 5.62306 28.5143L16.3901 15.8603C17.1054 15.0709 17.6481 14.2816 18.0181 13.4923C18.4127 12.7029 18.6101 11.9629 18.6101 11.2723C18.6101 10.1623 18.4127 9.20025 18.0181 8.38625C17.6234 7.54759 17.0437 6.89392 16.2791 6.42525C15.5391 5.95659 14.6757 5.72225 13.6891 5.72225C12.7024 5.72225 11.8144 5.98125 11.0251 6.49925C10.2357 6.99259 9.61906 7.65859 9.17506 8.49726C8.73106 9.33592 8.50906 10.2609 8.50906 11.2723C8.50906 11.7163 8.33639 12.1109 7.99106 12.4563C7.67039 12.7769 7.26339 12.9373 6.77006 12.9373C6.30139 12.9373 5.89439 12.7769 5.54906 12.4563C5.22839 12.1109 5.06806 11.7163 5.06806 11.2723C5.06806 9.59492 5.43806 8.10259 6.17806 6.79526C6.94272 5.48792 7.97872 4.45192 9.28606 3.68725C10.5934 2.92259 12.0611 2.54026 13.6891 2.54026C15.3417 2.54026 16.7847 2.89792 18.0181 3.61325C19.2514 4.32859 20.2134 5.33992 20.9041 6.64726C21.5947 7.95459 21.9401 9.49625 21.9401 11.2723C21.9401 12.0616 21.7797 12.8509 21.4591 13.6403C21.1631 14.4296 20.7684 15.1819 20.2751 15.8973C19.8064 16.6126 19.3131 17.2663 18.7951 17.8583L9.95206 27.9963H20.7561C21.2494 27.9963 21.6564 28.1813 21.9771 28.5513C22.3224 28.8966 22.4951 29.2913 22.4951 29.7353C22.4951 30.2039 22.3224 30.6109 21.9771 30.9563C21.6564 31.2769 21.2494 31.4373 20.7561 31.4373H6.88106ZM34.9256 31.4373C33.0756 31.4373 31.4969 30.8699 30.1896 29.7353C28.8823 28.5759 27.8833 26.9233 27.1926 24.7773C26.5019 22.6066 26.1566 20.0043 26.1566 16.9703C26.1566 13.9363 26.5019 11.3463 27.1926 9.20026C27.8833 7.02959 28.8823 5.37692 30.1896 4.24226C31.4969 3.08292 33.0756 2.50325 34.9256 2.50325C36.8003 2.50325 38.3913 3.09525 39.6986 4.27925C41.0306 5.43859 42.0296 7.10359 42.6956 9.27425C43.3863 11.4203 43.7316 13.9856 43.7316 16.9703C43.7316 19.9549 43.3863 22.5326 42.6956 24.7033C42.0296 26.8493 41.0306 28.5143 39.6986 29.6983C38.3913 30.8576 36.8003 31.4373 34.9256 31.4373ZM34.9256 27.9593C36.1589 27.9593 37.1579 27.4906 37.9226 26.5533C38.7119 25.5913 39.3039 24.2839 39.6986 22.6313C40.0933 20.9539 40.2906 19.0669 40.2906 16.9703C40.2906 14.8736 40.0933 12.9989 39.6986 11.3463C39.3039 9.66892 38.7119 8.34926 37.9226 7.38725C37.1333 6.42526 36.1343 5.94426 34.9256 5.94426C33.7416 5.94426 32.7549 6.42526 31.9656 7.38725C31.1763 8.32459 30.5843 9.63192 30.1896 11.3093C29.7949 12.9619 29.5976 14.8489 29.5976 16.9703C29.5976 19.0916 29.7949 20.9786 30.1896 22.6313C30.5843 24.2839 31.1763 25.5913 31.9656 26.5533C32.7549 27.4906 33.7416 27.9593 34.9256 27.9593ZM49.8068 31.4373C49.3135 31.4373 48.8942 31.2769 48.5488 30.9563C48.2282 30.6109 48.0678 30.2039 48.0678 29.7353C48.0678 29.2419 48.2282 28.8349 48.5488 28.5143L59.3158 15.8603C60.0312 15.0709 60.5738 14.2816 60.9438 13.4923C61.3385 12.7029 61.5358 11.9629 61.5358 11.2723C61.5358 10.1623 61.3385 9.20025 60.9438 8.38625C60.5492 7.54759 59.9695 6.89392 59.2048 6.42525C58.4648 5.95659 57.6015 5.72225 56.6148 5.72225C55.6282 5.72225 54.7402 5.98125 53.9508 6.49925C53.1615 6.99259 52.5448 7.65859 52.1008 8.49726C51.6568 9.33592 51.4348 10.2609 51.4348 11.2723C51.4348 11.7163 51.2622 12.1109 50.9168 12.4563C50.5962 12.7769 50.1892 12.9373 49.6958 12.9373C49.2272 12.9373 48.8202 12.7769 48.4748 12.4563C48.1542 12.1109 47.9938 11.7163 47.9938 11.2723C47.9938 9.59492 48.3638 8.10259 49.1038 6.79526C49.8685 5.48792 50.9045 4.45192 52.2118 3.68725C53.5192 2.92259 54.9868 2.54026 56.6148 2.54026C58.2675 2.54026 59.7105 2.89792 60.9438 3.61325C62.1772 4.32859 63.1392 5.33992 63.8298 6.64726C64.5205 7.95459 64.8658 9.49625 64.8658 11.2723C64.8658 12.0616 64.7055 12.8509 64.3848 13.6403C64.0888 14.4296 63.6942 15.1819 63.2008 15.8973C62.7322 16.6126 62.2388 17.2663 61.7208 17.8583L52.8778 27.9963H63.6818C64.1752 27.9963 64.5822 28.1813 64.9028 28.5513C65.2482 28.8966 65.4208 29.2913 65.4208 29.7353C65.4208 30.2039 65.2482 30.6109 64.9028 30.9563C64.5822 31.2769 64.1752 31.4373 63.6818 31.4373H49.8068ZM79.0354 31.4373C77.2347 31.4373 75.6314 31.0303 74.2254 30.2163C72.8194 29.3776 71.6971 28.2553 70.8584 26.8493C70.0444 25.4186 69.6374 23.8029 69.6374 22.0023C69.6374 21.5089 69.7977 21.1019 70.1184 20.7813C70.4391 20.4606 70.8337 20.3003 71.3024 20.3003C71.8204 20.3003 72.2397 20.4606 72.5604 20.7813C72.9057 21.1019 73.0784 21.5089 73.0784 22.0023C73.0784 23.1369 73.3374 24.1606 73.8554 25.0733C74.3734 25.9859 75.0764 26.7013 75.9644 27.2193C76.8771 27.7373 77.9007 27.9963 79.0354 27.9963C80.1701 27.9963 81.1814 27.7373 82.0694 27.2193C82.9821 26.7013 83.6974 25.9859 84.2154 25.0733C84.7334 24.1606 84.9924 23.1369 84.9924 22.0023C84.9924 20.8676 84.7334 19.8563 84.2154 18.9683C83.6974 18.0556 82.9821 17.3403 82.0694 16.8223C81.1814 16.3043 80.1701 16.0453 79.0354 16.0453H72.7454C72.2521 16.0453 71.8451 15.8849 71.5244 15.5643C71.2037 15.2189 71.0434 14.7996 71.0434 14.3063V4.27925C71.0434 3.78592 71.2037 3.37892 71.5244 3.05826C71.8451 2.71292 72.2521 2.54026 72.7454 2.54026H85.3254C85.7941 2.54026 86.1887 2.71292 86.5094 3.05826C86.8547 3.40359 87.0274 3.79826 87.0274 4.24226C87.0274 4.71092 86.8671 5.11792 86.5464 5.46326C86.2257 5.78392 85.8187 5.94426 85.3254 5.94426H74.4474V12.6043H79.0354C80.8361 12.6043 82.4394 13.0236 83.8454 13.8623C85.2514 14.6763 86.3614 15.7986 87.1754 17.2293C88.0141 18.6353 88.4334 20.2263 88.4334 22.0023C88.4334 23.7783 88.0141 25.3816 87.1754 26.8123C86.3614 28.2429 85.2514 29.3776 83.8454 30.2163C82.4394 31.0303 80.8361 31.4373 79.0354 31.4373Z"/><path fill="#68FC65" d="M5.62306 30.9563L4.15747 32.3172L4.20787 32.3714L4.26215 32.4218L5.62306 30.9563ZM5.62306 28.5143L7.03727 29.9285L7.09415 29.8716L7.14627 29.8103L5.62306 28.5143ZM16.3901 15.8603L14.9081 14.5172L14.8871 14.5404L14.8668 14.5642L16.3901 15.8603ZM18.0181 13.4923L16.2292 12.5978L16.2179 12.6205L16.2071 12.6434L18.0181 13.4923ZM18.0181 8.38625L16.2084 9.23785L16.2134 9.24835L16.2184 9.2588L18.0181 8.38625ZM16.2791 6.42525L15.209 8.11489L15.2214 8.12277L15.2339 8.13045L16.2791 6.42525ZM11.0251 6.49925L12.0851 8.19525L12.1038 8.18351L12.1224 8.17135L11.0251 6.49925ZM9.17506 8.49726L10.9426 9.43303L10.9426 9.43303L9.17506 8.49726ZM7.99106 12.4563L6.57684 11.042L6.57684 11.042L7.99106 12.4563ZM5.54906 12.4563L4.08347 13.8172L4.13387 13.8714L4.18815 13.9218L5.54906 12.4563ZM6.17806 6.79526L4.45168 5.78549L4.44452 5.79772L4.43754 5.81006L6.17806 6.79526ZM9.28606 3.68725L8.27629 1.96088L8.27629 1.96088L9.28606 3.68725ZM20.9041 6.64726L19.1357 7.5815L19.1357 7.5815L20.9041 6.64726ZM21.4591 13.6403L19.6061 12.8875L19.5959 12.9126L19.5864 12.938L21.4591 13.6403ZM20.2751 15.8973L18.6286 14.7618L18.6151 14.7813L18.6021 14.8012L20.2751 15.8973ZM18.7951 17.8583L17.2899 16.5412L17.2879 16.5436L18.7951 17.8583ZM9.95206 27.9963L8.44486 26.6816L5.5536 29.9963H9.95206V27.9963ZM21.9771 28.5513L20.4657 29.8611L20.5124 29.915L20.5628 29.9655L21.9771 28.5513ZM21.9771 30.9563L23.3913 32.3705L23.3913 32.3705L21.9771 30.9563ZM6.88106 29.4373C6.85439 29.4373 6.87094 29.4336 6.91083 29.4489C6.92908 29.4559 6.94624 29.4646 6.96083 29.4738C6.97524 29.4828 6.98287 29.4897 6.98396 29.4907L4.26215 32.4218C4.99607 33.1033 5.90894 33.4373 6.88106 33.4373V29.4373ZM7.08864 29.5954C7.08485 29.5913 7.105 29.613 7.12312 29.659C7.14132 29.7052 7.14206 29.7367 7.14206 29.7353H3.14206C3.14206 30.7118 3.49541 31.6042 4.15747 32.3172L7.08864 29.5954ZM7.14206 29.7353C7.14206 29.7076 7.14592 29.7352 7.12312 29.7931C7.09902 29.8542 7.06367 29.9021 7.03727 29.9285L4.20884 27.1C3.47828 27.8306 3.14206 28.7628 3.14206 29.7353H7.14206ZM7.14627 29.8103L17.9133 17.1563L14.8668 14.5642L4.09984 27.2182L7.14627 29.8103ZM17.872 17.2033C18.6925 16.298 19.3582 15.3454 19.829 14.3411L16.2071 12.6434C15.9379 13.2178 15.5183 13.8439 14.9081 14.5172L17.872 17.2033ZM19.8069 14.3867C20.303 13.3945 20.6101 12.3474 20.6101 11.2723H16.6101C16.6101 11.5784 16.5224 12.0114 16.2292 12.5978L19.8069 14.3867ZM20.6101 11.2723C20.6101 9.9273 20.3707 8.65436 19.8177 7.51371L16.2184 9.2588C16.4547 9.74615 16.6101 10.3972 16.6101 11.2723H20.6101ZM19.8277 7.53466C19.2728 6.35548 18.4331 5.3997 17.3242 4.72005L15.2339 8.13045C15.6544 8.38814 15.974 8.7397 16.2084 9.23785L19.8277 7.53466ZM17.3492 4.73562C16.2498 4.03937 15.0053 3.72225 13.6891 3.72225V7.72225C14.3461 7.72225 14.8283 7.87381 15.209 8.11489L17.3492 4.73562ZM13.6891 3.72225C12.331 3.72225 11.0582 4.08529 9.92774 4.82716L12.1224 8.17135C12.5706 7.87722 13.0738 7.72225 13.6891 7.72225V3.72225ZM9.96506 4.80326C8.871 5.48705 8.01292 6.41788 7.40748 7.56148L10.9426 9.43303C11.2252 8.8993 11.6004 8.49813 12.0851 8.19525L9.96506 4.80326ZM7.40748 7.56148C6.80085 8.70734 6.50906 9.95677 6.50906 11.2723H10.5091C10.5091 10.5651 10.6613 9.96451 10.9426 9.43303L7.40748 7.56148ZM6.50906 11.2723C6.50906 11.227 6.51956 11.1629 6.54724 11.0996C6.57332 11.04 6.59656 11.0223 6.57684 11.042L9.40527 13.8705C10.0845 13.1912 10.5091 12.3022 10.5091 11.2723H6.50906ZM6.57684 11.042C6.60324 11.0156 6.65106 10.9803 6.71226 10.9562C6.77014 10.9334 6.79768 10.9373 6.77006 10.9373V14.9373C7.74246 14.9373 8.67471 14.601 9.40527 13.8705L6.57684 11.042ZM6.77006 10.9373C6.76857 10.9373 6.80016 10.938 6.84636 10.9562C6.89236 10.9743 6.91405 10.9945 6.90996 10.9907L4.18815 13.9218C4.90114 14.5839 5.79347 14.9373 6.77006 14.9373V10.9373ZM7.01464 11.0954C7.00172 11.0814 7.021 11.0987 7.04124 11.1485C7.06229 11.2003 7.06806 11.2473 7.06806 11.2723H3.06806C3.06806 12.2541 3.44243 13.1268 4.08347 13.8172L7.01464 11.0954ZM7.06806 11.2723C7.06806 9.89912 7.36782 8.75345 7.91857 7.78045L4.43754 5.81006C3.50829 7.45173 3.06806 9.29072 3.06806 11.2723H7.06806ZM7.90443 7.80502C8.49571 6.79412 9.28492 6.00491 10.2958 5.41363L8.27629 1.96088C6.67252 2.89893 5.38973 4.18172 4.45168 5.78549L7.90443 7.80502ZM10.2958 5.41363C11.2739 4.84155 12.3884 4.54026 13.6891 4.54026V0.540255C11.7337 0.540255 9.91288 1.00363 8.27629 1.96088L10.2958 5.41363ZM13.6891 4.54026C15.0461 4.54026 16.1318 4.83125 17.0146 5.34332L19.0215 1.88319C17.4377 0.96459 15.6374 0.540255 13.6891 0.540255V4.54026ZM17.0146 5.34332C17.911 5.86319 18.6135 6.59302 19.1357 7.5815L22.6724 5.71301C21.8133 4.08682 20.5918 2.79399 19.0215 1.88319L17.0146 5.34332ZM19.1357 7.5815C19.6465 8.5484 19.9401 9.7568 19.9401 11.2723H23.9401C23.9401 9.23571 23.543 7.36077 22.6724 5.71301L19.1357 7.5815ZM19.9401 11.2723C19.9401 11.7837 19.8374 12.3181 19.6061 12.8875L23.312 14.393C23.722 13.3837 23.9401 12.3395 23.9401 11.2723H19.9401ZM19.5864 12.938C19.3496 13.5696 19.032 14.1769 18.6286 14.7618L21.9215 17.0327C22.5048 16.1869 22.9766 15.2896 23.3317 14.3425L19.5864 12.938ZM18.6021 14.8012C18.1799 15.4457 17.7419 16.0246 17.2899 16.5412L20.3002 19.1753C20.8842 18.5079 21.4329 17.7795 21.948 16.9933L18.6021 14.8012ZM17.2879 16.5436L8.44486 26.6816L11.4593 29.3109L20.3023 19.1729L17.2879 16.5436ZM9.95206 29.9963H20.7561V25.9963H9.95206V29.9963ZM20.7561 29.9963C20.747 29.9963 20.6859 29.9931 20.6037 29.9557C20.5211 29.9182 20.4757 29.8727 20.4657 29.8611L23.4884 27.2414C22.7846 26.4293 21.8244 25.9963 20.7561 25.9963V29.9963ZM20.5628 29.9655C20.5826 29.9852 20.5593 29.9675 20.5332 29.9079C20.5056 29.8446 20.4951 29.7805 20.4951 29.7353H24.4951C24.4951 28.7053 24.0705 27.8163 23.3913 27.137L20.5628 29.9655ZM20.4951 29.7353C20.4951 29.7176 20.4997 29.6691 20.5244 29.6109C20.5484 29.5543 20.5729 29.532 20.5628 29.542L23.3913 32.3705C24.0941 31.6677 24.4951 30.7587 24.4951 29.7353H20.4951ZM20.5628 29.542C20.5892 29.5156 20.6371 29.4803 20.6983 29.4562C20.7561 29.4334 20.7837 29.4373 20.7561 29.4373V33.4373C21.7285 33.4373 22.6607 33.101 23.3913 32.3705L20.5628 29.542ZM20.7561 29.4373H6.88106V33.4373H20.7561V29.4373ZM30.1896 29.7353L28.8626 31.2316L28.8706 31.2387L28.8787 31.2457L30.1896 29.7353ZM27.1926 24.7773L25.2867 25.3837L25.2888 25.39L27.1926 24.7773ZM27.1926 9.20026L29.0964 9.81299L29.0985 9.80666L27.1926 9.20026ZM30.1896 4.24226L31.5006 5.75269L31.5086 5.7457L31.5166 5.73863L30.1896 4.24226ZM39.6986 4.27925L38.3561 5.76166L38.3707 5.77491L38.3856 5.78786L39.6986 4.27925ZM42.6956 9.27425L40.7836 9.8609L40.7876 9.87397L40.7918 9.88698L42.6956 9.27425ZM42.6956 24.7033L40.7898 24.0968L40.7876 24.1036L40.7855 24.1105L42.6956 24.7033ZM39.6986 29.6983L41.0256 31.1946L41.0273 31.1931L39.6986 29.6983ZM37.9226 26.5533L36.3765 25.2846L36.3729 25.289L37.9226 26.5533ZM39.6986 22.6313L41.6439 23.0958L41.6454 23.0893L39.6986 22.6313ZM39.6986 11.3463L37.7518 11.8043L37.7533 11.8108L39.6986 11.3463ZM37.9226 7.38725L39.4688 6.11862L39.4688 6.11862L37.9226 7.38725ZM31.9656 7.38725L33.4954 8.67553L33.5037 8.66576L33.5118 8.65589L31.9656 7.38725ZM30.1896 11.3093L32.1349 11.7738L32.1364 11.7673L30.1896 11.3093ZM31.9656 26.5533L30.4195 27.8219L30.4276 27.8318L30.4358 27.8415L31.9656 26.5533ZM34.9256 29.4373C33.5214 29.4373 32.4179 29.021 31.5006 28.2248L28.8787 31.2457C30.576 32.7188 32.6298 33.4373 34.9256 33.4373V29.4373ZM31.5166 28.2389C30.5443 27.3767 29.7086 26.0666 29.0964 24.1645L25.2888 25.39C26.058 27.7799 27.2203 29.7752 28.8626 31.2316L31.5166 28.2389ZM29.0985 24.1708C28.487 22.249 28.1566 19.8623 28.1566 16.9703H24.1566C24.1566 20.1462 24.5169 22.9641 25.2868 25.3837L29.0985 24.1708ZM28.1566 16.9703C28.1566 14.0772 28.4872 11.7059 29.0964 9.81298L25.2888 8.58753C24.5167 10.9866 24.1566 13.7953 24.1566 16.9703H28.1566ZM29.0985 9.80666C29.712 7.87828 30.5455 6.58161 31.5006 5.75269L28.8787 2.73182C27.219 4.17224 26.0545 6.1809 25.2868 8.59385L29.0985 9.80666ZM31.5166 5.73863C32.4353 4.92396 33.5333 4.50325 34.9256 4.50325V0.503253C32.6179 0.503253 30.5586 1.24188 28.8626 2.74588L31.5166 5.73863ZM34.9256 4.50325C36.3381 4.50325 37.441 4.93297 38.3561 5.76166L41.0412 2.79685C39.3415 1.25754 37.2624 0.503253 34.9256 0.503253V4.50325ZM38.3856 5.78786C39.3656 6.64089 40.1963 7.94684 40.7836 9.8609L44.6076 8.68761C43.8629 6.26033 42.6956 4.23629 41.0117 2.77065L38.3856 5.78786ZM40.7918 9.88698C41.4019 11.7827 41.7316 14.1304 41.7316 16.9703H45.7316C45.7316 13.8407 45.3707 11.0578 44.5994 8.66153L40.7918 9.88698ZM41.7316 16.9703C41.7316 19.8092 41.4021 22.1723 40.7898 24.0968L44.6015 25.3097C45.3704 22.8929 45.7316 20.1007 45.7316 16.9703H41.7316ZM40.7855 24.1105C40.1996 25.9982 39.3669 27.3172 38.3699 28.2034L41.0273 31.1931C42.6943 29.7113 43.8596 27.7003 44.6057 25.2961L40.7855 24.1105ZM38.3716 28.2019C37.4582 29.012 36.35 29.4373 34.9256 29.4373V33.4373C37.2506 33.4373 39.3244 32.7032 41.0256 31.1946L38.3716 28.2019ZM34.9256 29.9593C36.7462 29.9593 38.3193 29.2309 39.4723 27.8175L36.3729 25.289C35.9966 25.7503 35.5717 25.9593 34.9256 25.9593V29.9593ZM39.4688 27.8219C40.5073 26.5562 41.2032 24.9413 41.6439 23.0958L37.7533 22.1667C37.4047 23.6265 36.9166 24.6264 36.3765 25.2846L39.4688 27.8219ZM41.6454 23.0893C42.0821 21.2337 42.2906 19.1892 42.2906 16.9703H38.2906C38.2906 18.9446 38.1045 20.6742 37.7518 22.1732L41.6454 23.0893ZM42.2906 16.9703C42.2906 14.752 42.0822 12.7171 41.6439 10.8817L37.7533 11.8108C38.1043 13.2808 38.2906 14.9952 38.2906 16.9703H42.2906ZM41.6454 10.8882C41.2062 9.02134 40.5115 7.38947 39.4688 6.11862L36.3765 8.65589C36.9124 9.30904 37.4017 10.3165 37.7518 11.8043L41.6454 10.8882ZM39.4688 6.11862C38.3125 4.70946 36.7533 3.94426 34.9256 3.94426V7.94426C35.5152 7.94426 35.954 8.14105 36.3765 8.65589L39.4688 6.11862ZM34.9256 3.94426C33.1085 3.94426 31.5664 4.72079 30.4195 6.11862L33.5118 8.65589C33.9435 8.12972 34.3748 7.94426 34.9256 7.94426V3.94426ZM30.4358 6.09898C29.3791 7.35381 28.6819 8.98477 28.2428 10.8512L32.1364 11.7673C32.4866 10.2791 32.9735 9.29536 33.4954 8.67553L30.4358 6.09898ZM28.2443 10.8447C27.8056 12.6817 27.5976 14.7293 27.5976 16.9703H31.5976C31.5976 14.9685 31.7843 13.2422 32.1349 11.7738L28.2443 10.8447ZM27.5976 16.9703C27.5976 19.2112 27.8056 21.2589 28.2443 23.0958L32.1349 22.1667C31.7843 20.6983 31.5976 18.972 31.5976 16.9703H27.5976ZM28.2443 23.0958C28.685 24.9413 29.3809 26.5562 30.4195 27.8219L33.5118 25.2846C32.9716 24.6264 32.4835 23.6265 32.1349 22.1667L28.2443 23.0958ZM30.4358 27.8415C31.5899 29.212 33.1283 29.9593 34.9256 29.9593V25.9593C34.3549 25.9593 33.92 25.7692 33.4954 25.265L30.4358 27.8415ZM48.5488 30.9563L47.0833 32.3172L47.1337 32.3714L47.1879 32.4218L48.5488 30.9563ZM48.5488 28.5143L49.9631 29.9285L50.0199 29.8716L50.0721 29.8103L48.5488 28.5143ZM59.3158 15.8603L57.8339 14.5172L57.8129 14.5404L57.7926 14.5642L59.3158 15.8603ZM60.9438 13.4923L59.155 12.5978L59.1437 12.6205L59.1329 12.6434L60.9438 13.4923ZM60.9438 8.38625L59.1342 9.23785L59.1391 9.24835L59.1442 9.2588L60.9438 8.38625ZM59.2048 6.42525L58.1347 8.11489L58.1472 8.12277L58.1597 8.13045L59.2048 6.42525ZM53.9508 6.49925L55.0108 8.19525L55.0296 8.18351L55.0482 8.17135L53.9508 6.49925ZM52.1008 8.49726L53.8684 9.43303L53.8684 9.43303L52.1008 8.49726ZM50.9168 12.4563L49.5026 11.042L49.5026 11.042L50.9168 12.4563ZM48.4748 12.4563L47.0092 13.8172L47.0597 13.8714L47.1139 13.9218L48.4748 12.4563ZM49.1038 6.79526L47.3775 5.78549L47.3703 5.79772L47.3633 5.81006L49.1038 6.79526ZM52.2118 3.68725L51.2021 1.96088L51.2021 1.96088L52.2118 3.68725ZM63.8298 6.64726L62.0615 7.5815L62.0615 7.5815L63.8298 6.64726ZM64.3848 13.6403L62.5319 12.8875L62.5217 12.9126L62.5122 12.938L64.3848 13.6403ZM63.2008 15.8973L61.5544 14.7618L61.5409 14.7813L61.5279 14.8012L63.2008 15.8973ZM61.7208 17.8583L60.2157 16.5412L60.2136 16.5436L61.7208 17.8583ZM52.8778 27.9963L51.3706 26.6816L48.4794 29.9963H52.8778V27.9963ZM64.9028 28.5513L63.3915 29.8611L63.4382 29.915L63.4886 29.9655L64.9028 28.5513ZM64.9028 30.9563L66.3171 32.3705L66.3171 32.3705L64.9028 30.9563ZM49.8068 29.4373C49.7802 29.4373 49.7967 29.4336 49.8366 29.4489C49.8549 29.4559 49.872 29.4646 49.8866 29.4738C49.901 29.4828 49.9086 29.4897 49.9097 29.4907L47.1879 32.4218C47.9219 33.1033 48.8347 33.4373 49.8068 33.4373V29.4373ZM50.0144 29.5954C50.0106 29.5913 50.0308 29.613 50.0489 29.659C50.0671 29.7052 50.0678 29.7367 50.0678 29.7353H46.0678C46.0678 30.7118 46.4212 31.6042 47.0833 32.3172L50.0144 29.5954ZM50.0678 29.7353C50.0678 29.7076 50.0717 29.7352 50.0489 29.7931C50.0248 29.8542 49.9895 29.9021 49.9631 29.9285L47.1346 27.1C46.4041 27.8306 46.0678 28.7628 46.0678 29.7353H50.0678ZM50.0721 29.8103L60.8391 17.1563L57.7926 14.5642L47.0256 27.2182L50.0721 29.8103ZM60.7978 17.2033C61.6183 16.298 62.284 15.3454 62.7548 14.3411L59.1329 12.6434C58.8637 13.2178 58.4441 13.8439 57.8339 14.5172L60.7978 17.2033ZM62.7327 14.3867C63.2288 13.3945 63.5358 12.3474 63.5358 11.2723H59.5358C59.5358 11.5784 59.4482 12.0114 59.155 12.5978L62.7327 14.3867ZM63.5358 11.2723C63.5358 9.9273 63.2965 8.65436 62.7435 7.51371L59.1442 9.2588C59.3805 9.74615 59.5358 10.3972 59.5358 11.2723H63.5358ZM62.7535 7.53466C62.1986 6.35548 61.3589 5.3997 60.25 4.72005L58.1597 8.13045C58.5802 8.38814 58.8998 8.7397 59.1342 9.23785L62.7535 7.53466ZM60.2749 4.73562C59.1756 4.03937 57.9311 3.72225 56.6148 3.72225V7.72225C57.2719 7.72225 57.7541 7.87381 58.1347 8.11489L60.2749 4.73562ZM56.6148 3.72225C55.2568 3.72225 53.984 4.08529 52.8535 4.82716L55.0482 8.17135C55.4963 7.87722 55.9996 7.72225 56.6148 7.72225V3.72225ZM52.8908 4.80326C51.7968 5.48705 50.9387 6.41788 50.3333 7.56148L53.8684 9.43303C54.151 8.8993 54.5262 8.49813 55.0108 8.19525L52.8908 4.80326ZM50.3333 7.56148C49.7266 8.70734 49.4348 9.95677 49.4348 11.2723H53.4348C53.4348 10.5651 53.587 9.96451 53.8684 9.43303L50.3333 7.56148ZM49.4348 11.2723C49.4348 11.227 49.4453 11.1629 49.473 11.0996C49.4991 11.04 49.5223 11.0223 49.5026 11.042L52.3311 13.8705C53.0103 13.1912 53.4348 12.3022 53.4348 11.2723H49.4348ZM49.5026 11.042C49.529 11.0156 49.5768 10.9803 49.638 10.9562C49.6959 10.9334 49.7235 10.9373 49.6958 10.9373V14.9373C50.6682 14.9373 51.6005 14.601 52.3311 13.8705L49.5026 11.042ZM49.6958 10.9373C49.6944 10.9373 49.7259 10.938 49.7721 10.9562C49.8181 10.9743 49.8398 10.9945 49.8357 10.9907L47.1139 13.9218C47.8269 14.5839 48.7193 14.9373 49.6958 14.9373V10.9373ZM49.9404 11.0954C49.9275 11.0814 49.9468 11.0987 49.967 11.1485C49.9881 11.2003 49.9938 11.2473 49.9938 11.2723H45.9938C45.9938 12.2541 46.3682 13.1268 47.0092 13.8172L49.9404 11.0954ZM49.9938 11.2723C49.9938 9.89912 50.2936 8.75345 50.8444 7.78045L47.3633 5.81006C46.4341 7.45173 45.9938 9.29072 45.9938 11.2723H49.9938ZM50.8302 7.80502C51.4215 6.79412 52.2107 6.00491 53.2216 5.41363L51.2021 1.96088C49.5983 2.89893 48.3155 4.18172 47.3775 5.78549L50.8302 7.80502ZM53.2216 5.41363C54.1997 4.84155 55.3142 4.54026 56.6148 4.54026V0.540255C54.6594 0.540255 52.8387 1.00363 51.2021 1.96088L53.2216 5.41363ZM56.6148 4.54026C57.9718 4.54026 59.0575 4.83125 59.9404 5.34332L61.9473 1.88319C60.3635 0.96459 58.5632 0.540255 56.6148 0.540255V4.54026ZM59.9404 5.34332C60.8367 5.86319 61.5392 6.59302 62.0615 7.5815L65.5982 5.71301C64.7391 4.08682 63.5176 2.79399 61.9473 1.88319L59.9404 5.34332ZM62.0615 7.5815C62.5723 8.5484 62.8658 9.7568 62.8658 11.2723H66.8658C66.8658 9.23571 66.4687 7.36077 65.5982 5.71301L62.0615 7.5815ZM62.8658 11.2723C62.8658 11.7837 62.7632 12.3181 62.5319 12.8875L66.2378 14.393C66.6478 13.3837 66.8658 12.3395 66.8658 11.2723H62.8658ZM62.5122 12.938C62.2753 13.5696 61.9578 14.1769 61.5544 14.7618L64.8473 17.0327C65.4306 16.1869 65.9023 15.2896 66.2575 14.3425L62.5122 12.938ZM61.5279 14.8012C61.1056 15.4457 60.6677 16.0246 60.2157 16.5412L63.226 19.1753C63.81 18.5079 64.3587 17.7795 64.8738 16.9933L61.5279 14.8012ZM60.2136 16.5436L51.3706 26.6816L54.385 29.3109L63.228 19.1729L60.2136 16.5436ZM52.8778 29.9963H63.6818V25.9963H52.8778V29.9963ZM63.6818 29.9963C63.6728 29.9963 63.6117 29.9931 63.5295 29.9557C63.4469 29.9182 63.4015 29.8727 63.3915 29.8611L66.4142 27.2414C65.7104 26.4293 64.7501 25.9963 63.6818 25.9963V29.9963ZM63.4886 29.9655C63.5083 29.9852 63.4851 29.9675 63.459 29.9079C63.4313 29.8446 63.4208 29.7805 63.4208 29.7353H67.4208C67.4208 28.7053 66.9963 27.8163 66.3171 27.137L63.4886 29.9655ZM63.4208 29.7353C63.4208 29.7176 63.4255 29.6691 63.4502 29.6109C63.4742 29.5543 63.4987 29.532 63.4886 29.542L66.3171 32.3705C67.0199 31.6677 67.4208 30.7587 67.4208 29.7353H63.4208ZM63.4886 29.542C63.515 29.5156 63.5628 29.4803 63.624 29.4562C63.6819 29.4334 63.7095 29.4373 63.6818 29.4373V33.4373C64.6542 33.4373 65.5865 33.101 66.3171 32.3705L63.4886 29.542ZM63.6818 29.4373H49.8068V33.4373H63.6818V29.4373ZM74.2254 30.2163L73.2008 31.9339L73.212 31.9406L73.2233 31.9471L74.2254 30.2163ZM70.8584 26.8493L69.1201 27.8383L69.1302 27.8562L69.1408 27.8738L70.8584 26.8493ZM70.1184 20.7813L68.7042 19.367L68.7042 19.367L70.1184 20.7813ZM72.5604 20.7813L71.1462 22.1955L71.1724 22.2216L71.1995 22.2468L72.5604 20.7813ZM75.9644 27.2193L74.9567 28.9468L74.9669 28.9528L74.9772 28.9586L75.9644 27.2193ZM82.0694 27.2193L81.0822 25.4799L81.0719 25.4857L81.0617 25.4917L82.0694 27.2193ZM84.2154 18.9683L82.476 19.9555L82.4819 19.9658L82.4878 19.976L84.2154 18.9683ZM82.0694 16.8223L81.0617 18.5498L81.0719 18.5558L81.0822 18.5616L82.0694 16.8223ZM71.5244 15.5643L70.0588 16.9252L70.084 16.9523L70.1102 16.9785L71.5244 15.5643ZM71.5244 3.05826L72.9386 4.47247L72.9648 4.44629L72.99 4.41916L71.5244 3.05826ZM86.5094 3.05826L85.0438 4.41916L85.069 4.44629L85.0952 4.47247L86.5094 3.05826ZM86.5464 5.46326L87.9606 6.87747L87.9868 6.85129L88.012 6.82416L86.5464 5.46326ZM74.4474 5.94426V3.94426H72.4474V5.94426H74.4474ZM74.4474 12.6043H72.4474V14.6043H74.4474V12.6043ZM83.8454 13.8623L82.8208 15.5799L82.832 15.5866L82.8433 15.5931L83.8454 13.8623ZM87.1754 17.2293L85.4371 18.2183L85.4472 18.2362L85.4578 18.2538L87.1754 17.2293ZM87.1754 26.8123L85.45 25.8008L85.4435 25.812L85.4371 25.8232L87.1754 26.8123ZM83.8454 30.2163L84.8475 31.9471L84.8588 31.9406L84.8699 31.9339L83.8454 30.2163ZM79.0354 29.4373C77.5475 29.4373 76.2968 29.1045 75.2275 28.4854L73.2233 31.9471C74.966 32.956 76.9219 33.4373 79.0354 33.4373V29.4373ZM75.2499 28.4986C74.1289 27.8299 73.2447 26.9458 72.576 25.8247L69.1408 27.8738C70.1494 29.5648 71.5099 30.9253 73.2008 31.9339L75.2499 28.4986ZM72.5967 25.8602C71.97 24.7588 71.6374 23.4896 71.6374 22.0023H67.6374C67.6374 24.1162 68.1187 26.0784 69.1201 27.8383L72.5967 25.8602ZM71.6374 22.0023C71.6374 21.9746 71.6413 22.0022 71.6185 22.0601C71.5944 22.1212 71.559 22.1691 71.5326 22.1955L68.7042 19.367C67.9736 20.0976 67.6374 21.0298 67.6374 22.0023H71.6374ZM71.5326 22.1955C71.5163 22.2117 71.4736 22.2466 71.4076 22.2734C71.343 22.2997 71.3002 22.3003 71.3024 22.3003V18.3003C70.3231 18.3003 69.4137 18.6575 68.7042 19.367L71.5326 22.1955ZM71.3024 22.3003C71.3543 22.3003 71.3417 22.308 71.2911 22.2886C71.2666 22.2792 71.2391 22.2657 71.2114 22.2477C71.1838 22.2297 71.1619 22.2112 71.1462 22.1955L73.9746 19.367C73.2246 18.617 72.2688 18.3003 71.3024 18.3003V22.3003ZM71.1995 22.2468C71.1795 22.2283 71.1386 22.1809 71.1077 22.1081C71.0777 22.0374 71.0784 21.9928 71.0784 22.0023H75.0784C75.0784 20.9822 74.6952 20.0343 73.9213 19.3157L71.1995 22.2468ZM71.0784 22.0023C71.0784 23.454 71.4134 24.8226 72.116 26.0605L75.5948 24.086C75.2613 23.4986 75.0784 22.8198 75.0784 22.0023H71.0784ZM72.116 26.0605C72.8045 27.2735 73.7571 28.2471 74.9567 28.9468L76.9721 25.4917C76.3957 25.1554 75.9423 24.6984 75.5948 24.086L72.116 26.0605ZM74.9772 28.9586C76.2151 29.6612 77.5836 29.9963 79.0354 29.9963V25.9963C78.2178 25.9963 77.5391 25.8133 76.9516 25.4799L74.9772 28.9586ZM79.0354 29.9963C80.4864 29.9963 81.8522 29.6613 83.0771 28.9468L81.0617 25.4917C80.5105 25.8132 79.8537 25.9963 79.0354 25.9963V29.9963ZM83.0566 28.9586C84.2833 28.2624 85.2585 27.2872 85.9548 26.0605L82.476 24.086C82.1362 24.6847 81.6808 25.1401 81.0822 25.4799L83.0566 28.9586ZM85.9548 26.0605C86.6573 24.8226 86.9924 23.454 86.9924 22.0023H82.9924C82.9924 22.8198 82.8094 23.4986 82.476 24.086L85.9548 26.0605ZM86.9924 22.0023C86.9924 20.5512 86.6575 19.1854 85.9429 17.9605L82.4878 19.976C82.8093 20.5271 82.9924 21.184 82.9924 22.0023H86.9924ZM85.9548 17.981C85.2585 16.7544 84.2833 15.7791 83.0566 15.0829L81.0822 18.5616C81.6808 18.9014 82.1362 19.3568 82.476 19.9555L85.9548 17.981ZM83.0771 15.0947C81.8522 14.3802 80.4864 14.0453 79.0354 14.0453V18.0453C79.8537 18.0453 80.5105 18.2283 81.0617 18.5498L83.0771 15.0947ZM79.0354 14.0453H72.7454V18.0453H79.0354V14.0453ZM72.7454 14.0453C72.7178 14.0453 72.7453 14.0414 72.8032 14.0642C72.8644 14.0883 72.9122 14.1236 72.9386 14.15L70.1102 16.9785C70.8407 17.709 71.773 18.0453 72.7454 18.0453V14.0453ZM72.99 14.2034C72.991 14.2044 72.9978 14.2121 73.0069 14.2265C73.0161 14.2411 73.0248 14.2582 73.0317 14.2765C73.047 14.3164 73.0434 14.3329 73.0434 14.3063H69.0434C69.0434 15.2784 69.3773 16.1912 70.0588 16.9252L72.99 14.2034ZM73.0434 14.3063V4.27925H69.0434V14.3063H73.0434ZM73.0434 4.27925C73.0434 4.25163 73.0473 4.27917 73.0245 4.33705C73.0004 4.39825 72.965 4.44607 72.9386 4.47247L70.1102 1.64404C69.3796 2.3746 69.0434 3.30685 69.0434 4.27925H73.0434ZM72.99 4.41916C72.9714 4.43917 72.924 4.48003 72.8512 4.51092C72.7805 4.54091 72.736 4.54026 72.7454 4.54026V0.540255C71.7253 0.540255 70.7774 0.923453 70.0588 1.69735L72.99 4.41916ZM72.7454 4.54026H85.3254V0.540255H72.7454V4.54026ZM85.3254 4.54026C85.3083 4.54026 85.2482 4.53575 85.1713 4.50207C85.0945 4.4685 85.0524 4.42846 85.0438 4.41916L87.975 1.69735C87.2783 0.94705 86.3537 0.540255 85.3254 0.540255V4.54026ZM85.0952 4.47247C85.1149 4.49219 85.0917 4.4745 85.0656 4.41489C85.0379 4.35161 85.0274 4.2875 85.0274 4.24226H89.0274C89.0274 3.21229 88.6028 2.32326 87.9236 1.64404L85.0952 4.47247ZM85.0274 4.24226C85.0274 4.24374 85.0281 4.21215 85.0463 4.16596C85.0644 4.11995 85.0846 4.09826 85.0808 4.10235L88.012 6.82416C88.674 6.11117 89.0274 5.21884 89.0274 4.24226H85.0274ZM85.1322 4.04904C85.1586 4.02264 85.2064 3.9873 85.2676 3.96319C85.3255 3.94039 85.353 3.94426 85.3254 3.94426V7.94426C86.2978 7.94426 87.23 7.60803 87.9606 6.87747L85.1322 4.04904ZM85.3254 3.94426H74.4474V7.94426H85.3254V3.94426ZM72.4474 5.94426V12.6043H76.4474V5.94426H72.4474ZM74.4474 14.6043H79.0354V10.6043H74.4474V14.6043ZM79.0354 14.6043C80.5124 14.6043 81.755 14.9442 82.8208 15.5799L84.8699 12.1446C83.1237 11.103 81.1597 10.6043 79.0354 10.6043V14.6043ZM82.8433 15.5931C83.9383 16.227 84.796 17.0915 85.4371 18.2183L88.9137 16.2402C87.9268 14.5056 86.5645 13.1255 84.8475 12.1314L82.8433 15.5931ZM85.4578 18.2538C86.0961 19.3239 86.4334 20.5553 86.4334 22.0023H90.4334C90.4334 19.8972 89.9321 17.9466 88.893 16.2047L85.4578 18.2538ZM86.4334 22.0023C86.4334 23.4488 86.0961 24.6987 85.45 25.8008L88.9008 27.8237C89.932 26.0645 90.4334 24.1077 90.4334 22.0023H86.4334ZM85.4371 25.8232C84.793 26.9551 83.9283 27.8381 82.8208 28.4986L84.8699 31.9339C86.5745 30.9171 87.9297 29.5307 88.9137 27.8013L85.4371 25.8232ZM82.8433 28.4854C81.774 29.1045 80.5233 29.4373 79.0354 29.4373V33.4373C81.1489 33.4373 83.1048 32.956 84.8475 31.9471L82.8433 28.4854Z" mask="url(#path-5-outside-3_1322_170)"/></g><defs><linearGradient id="paint0_linear_1322_170" x1="-86" x2="-86.1426" y1="-23.7118" y2="172.853" gradientUnits="userSpaceOnUse"><stop stop-color="#BDBEBF"/><stop offset="1" stop-color="#525659"/></linearGradient><linearGradient id="paint1_linear_1322_170" x1="-86" x2="-86.1426" y1="-23.7118" y2="172.853" gradientUnits="userSpaceOnUse"><stop stop-color="#BDBEBF"/><stop offset="1" stop-color="#525659"/></linearGradient><linearGradient id="paint2_linear_1322_170" x1="-86" x2="-86.1426" y1="29.2882" y2="225.853" gradientUnits="userSpaceOnUse"><stop offset="1" stop-color="#68FC65"/></linearGradient><clipPath id="clip0_1322_170"><rect width="240" height="165" fill="white"/></clipPath></defs></svg>